<?xml version="1.0" encoding="UTF-8"?>
<svg width="400px" height="196px" viewBox="0 0 400 196" version="1.1" xmlns="http://www.w3.org/2000/svg" xmlns:xlink="http://www.w3.org/1999/xlink">
    <!-- Generator: Sketch 63.1 (92452) - https://sketch.com -->
    <title>jobs/fulltime_designer</title>
    <desc>Created with Sketch.</desc>
    <defs>
        <linearGradient x1="99.9208506%" y1="49.9208506%" x2="0.0791493953%" y2="49.9208506%" id="linearGradient-1">
            <stop stop-color="#FF9175" offset="0%"></stop>
            <stop stop-color="#F43A60" offset="100%"></stop>
        </linearGradient>
    </defs>
    <g id="jobs/fulltime_designer" stroke="none" stroke-width="1" fill="none" fill-rule="evenodd">
        <g id="Group" transform="translate(98.656841, 30.216934)">
            <path d="M160.641704,25.0160168 C126.486664,25.3553192 109.409144,38.2053433 109.409144,63.5660891 C109.409144,101.607208 114.44477,117.646553 160.641704,117.646553" id="Path-9" stroke-opacity="0.2" stroke="#FFFFFF" stroke-width="10"></path>
            <path d="M33.3431586,56.7830662 C41.3398315,60.9485948 51.0060462,63.0313591 62.3418029,63.0313591 C73.6775595,63.0313591 85.6780114,60.9485948 98.3431586,56.7830662 L98.3431586,71.0313591 C84.6731648,72.1424297 72.6727129,72.697965 62.3418029,72.697965 C52.0108929,72.697965 42.3446781,72.1424297 33.3431586,71.0313591 L33.3431586,56.7830662 Z" id="Combined-Shape" fill-opacity="0.2" fill="#FFFFFF"></path>
            <path d="M194,101.779241 C202.904284,106.886178 199.734039,123.998618 192.734039,129.662818 C185.213118,135.748533 164.023687,138.645517 156.459404,130.571499 C148.895121,122.49748 147.189541,114.434086 153.909279,105.216057 C160.629017,95.9980284 185.095716,96.6723044 194,101.779241 Z M120.349128,50.8389463 C124.972453,54.5322389 130.409038,59.795002 129.567488,68.5283668 C128.725938,77.2617316 122.674575,90.2627717 109.843332,91.3668099 C97.0120899,92.470848 89.2187029,88.8747028 84.3470407,83.7032735 C78.9372433,77.9605962 72.0827034,62.4851098 82.1470327,53.2105049 C87.7807348,48.0188664 95.0617819,45.9770766 100.1513,45.9835353 C105.711055,45.9905907 113.448194,45.3262111 120.349128,50.8389463 Z M27.5767555,44.4955573 C35.9877749,44.4955573 41.1230494,45.5887292 44.7340391,48.7830662 C48.3061908,51.9430466 48.4867452,59.9013257 47.6064603,67 C47.1760921,70.4705172 46.6537589,74.7451103 42.6080616,77.9980606 C38.5623642,81.2510109 33.5338483,82.2982514 30.1212928,82.5833719 C22.4713037,83.2225318 13.6001302,81.4815811 9.59147579,80.0020232 C5.58282135,78.5224653 -0.104325968,70.5628358 1,63.0091663 C1.47569848,59.7553543 4.14775548,51.7422072 9.59147579,47.6732197 C15.0351961,43.6042323 24.0753613,44.4955573 27.5767555,44.4955573 Z M188.557442,3.78306623 C194.423905,6.47279069 202.066186,22.9294377 194.857741,30.1876066 C187.649296,37.4457754 171.388444,39.1886381 158.343159,34.2057682 C149.481285,30.8208237 143.171027,10.0024369 155.253803,3.78306623 C165.744248,-1.61668319 184.790104,2.05577308 188.557442,3.78306623 Z" id="Combined-Shape" fill="url(#linearGradient-1)"></path>
        </g>
    </g>
</svg>