<?xml version="1.0" encoding="UTF-8"?>
<svg width="400px" height="160px" viewBox="0 0 400 160" version="1.1" xmlns="http://www.w3.org/2000/svg" xmlns:xlink="http://www.w3.org/1999/xlink">
    <!-- Generator: Sketch 62 (91390) - https://sketch.com -->
    <title>client/hamiwallet</title>
    <desc>Created with Sketch.</desc>
    <defs>
        <linearGradient x1="53.8617952%" y1="0%" x2="53.8617952%" y2="100%" id="linearGradient-1">
            <stop stop-color="#388658" offset="0%"></stop>
            <stop stop-color="#24583B" offset="100%"></stop>
        </linearGradient>
        <path d="M6.18505648,11.6625481 C2.77120051,11.6625481 0,14.4088581 0,17.8350968 L0,42.6485026 C0,46.0774583 2.76914411,48.8522566 6.18505648,48.8522566 L45.7854292,48.8522566 C49.1992852,48.8522566 51.9704857,46.0747413 51.9704857,42.6485026 L51.9704857,17.8350968 C51.9704857,14.4061411 49.2013416,11.6625481 45.7854292,11.6625481 L29.0897657,11.6625481 C28.9917209,11.6534736 28.4268848,11.560538 28.1531349,11.3220615 C27.8736713,11.0786076 27.8541993,10.4772847 27.857191,10.39471 L27.8527524,9.95708618 C27.8669898,9.56346388 27.9353278,8.99168039 28.1902064,8.62089331 C28.4149823,8.29389825 28.8347064,8.02009687 29.1772104,7.83587178 L36.9709838,3.54834506 C37.9056387,3.1139996 38.3103588,2.0064447 37.8744312,1.07479367 C37.4393906,0.145038362 36.3272381,-0.259915444 35.3923503,0.174538243 C35.3923503,0.174538243 27.2403474,4.62784308 27.2356295,4.63073103 L26.6662354,4.89533533 C26.4644134,4.96519241 26.2292192,5.02122916 25.9940251,5.02122916 C25.7198616,5.02122916 25.4469949,4.94508455 25.2271468,4.85966525 L24.8610443,4.68953297 L19.0534246,2.03597908 C18.1175056,1.60104614 17.0064211,2.00418833 16.5704935,2.93583935 C16.1354529,3.86559466 16.539053,4.97493707 17.4739408,5.40939075 L22.8423059,7.85881775 C23.1764638,8.04248145 23.5714838,8.3072123 23.7871078,8.62089331 C24.0129307,8.94941141 24.0923194,9.43571161 24.1173872,9.81608554 L24.1173872,10.4194973 C24.1126442,10.5601068 24.0775406,11.0957318 23.8177342,11.3220615 C23.5439843,11.560538 22.9791482,11.6534736 22.8811034,11.6625481 L6.18505648,11.6625481 Z" id="path-2"></path>
        <linearGradient x1="55.0052083%" y1="90.7682292%" x2="-33.5%" y2="0%" id="linearGradient-4">
            <stop stop-color="#466B25" stop-opacity="0.2" offset="0%"></stop>
            <stop stop-color="#466B25" stop-opacity="0.00928515625" offset="23.425613%"></stop>
            <stop stop-color="#466B25" stop-opacity="0.3" offset="100%"></stop>
        </linearGradient>
        <linearGradient x1="50%" y1="-2.22044605e-14%" x2="50%" y2="100%" id="linearGradient-5">
            <stop stop-color="#FFFFFF" stop-opacity="0.5" offset="0%"></stop>
            <stop stop-color="#000000" stop-opacity="0.5" offset="100%"></stop>
        </linearGradient>
        <path d="M1.7704009e-21,3.74734513 C2.08325726e-21,1.67774356 1.68133772,-8.3984752e-16 3.7445676,1.42083933e-15 L37.831821,3.87703399e-14 C39.8998886,4.10363274e-14 41.5763886,1.67827768 41.5763886,3.74734513 L41.5763886,13.92262 C41.5763886,15.9922216 39.8950509,17.6699651 37.831821,17.6699651 L3.7445676,17.6699651 C1.67650002,17.6699651 -8.05448807e-23,15.9916875 2.32230732e-22,13.92262 L1.7704009e-21,3.74734513 Z" id="path-6"></path>
        <filter x="0.0%" y="0.0%" width="100.0%" height="100.0%" filterUnits="objectBoundingBox" id="filter-7">
            <feOffset dx="0" dy="0" in="SourceAlpha" result="shadowOffsetInner1"></feOffset>
            <feComposite in="shadowOffsetInner1" in2="SourceAlpha" operator="arithmetic" k2="-1" k3="1" result="shadowInnerInner1"></feComposite>
            <feColorMatrix values="0 0 0 0 1   0 0 0 0 1   0 0 0 0 1  0 0 0 0.3 0" type="matrix" in="shadowInnerInner1"></feColorMatrix>
        </filter>
        <linearGradient x1="50%" y1="-1.11022302e-14%" x2="50%" y2="100%" id="linearGradient-8">
            <stop stop-color="#000000" stop-opacity="0" offset="0%"></stop>
            <stop stop-color="#000000" stop-opacity="0.2" offset="100%"></stop>
        </linearGradient>
        <path d="M-2.25450586e-15,7.90498399 C-2.25450586e-15,5.83538242 1.68133772,4.15763886 3.7445676,4.15763886 L37.831821,4.15763886 C39.8998886,4.15763886 41.5763886,5.83591654 41.5763886,7.90498399 L41.5763886,18.0802589 C41.5763886,20.1498604 39.8950509,21.827604 37.831821,21.827604 L3.7445676,21.827604 C1.67650002,21.827604 -2.25450586e-15,20.1493263 -2.25450586e-15,18.0802589 L-2.25450586e-15,7.90498399 Z" id="path-9"></path>
        <filter x="-0.0%" y="0.0%" width="100.0%" height="100.0%" filterUnits="objectBoundingBox" id="filter-10">
            <feOffset dx="0" dy="0" in="SourceAlpha" result="shadowOffsetInner1"></feOffset>
            <feComposite in="shadowOffsetInner1" in2="SourceAlpha" operator="arithmetic" k2="-1" k3="1" result="shadowInnerInner1"></feComposite>
            <feColorMatrix values="0 0 0 0 1   0 0 0 0 1   0 0 0 0 1  0 0 0 0.3 0" type="matrix" in="shadowInnerInner1"></feColorMatrix>
        </filter>
        <path d="M-2.21301188e-15,12.0626228 C-2.21301188e-15,9.99302128 1.68133772,8.31527772 3.7445676,8.31527772 L37.831821,8.31527772 C39.8998886,8.31527772 41.5763886,9.9935554 41.5763886,12.0626228 L41.5763886,22.2378977 C41.5763886,24.3074993 39.8950509,25.9852429 37.831821,25.9852429 L3.7445676,25.9852429 C1.67650002,25.9852429 -2.21301188e-15,24.3069652 -2.21301188e-15,22.2378977 L-2.21301188e-15,12.0626228 Z" id="path-11"></path>
        <filter x="-3.6%" y="-8.5%" width="107.2%" height="117.0%" filterUnits="objectBoundingBox" id="filter-12">
            <feOffset dx="0" dy="0" in="SourceAlpha" result="shadowOffsetOuter1"></feOffset>
            <feGaussianBlur stdDeviation="0.5" in="shadowOffsetOuter1" result="shadowBlurOuter1"></feGaussianBlur>
            <feColorMatrix values="0 0 0 0 0   0 0 0 0 0   0 0 0 0 0  0 0 0 0.05 0" type="matrix" in="shadowBlurOuter1"></feColorMatrix>
        </filter>
        <filter x="-2.4%" y="-5.7%" width="104.8%" height="111.3%" filterUnits="objectBoundingBox" id="filter-13">
            <feOffset dx="0" dy="0" in="SourceAlpha" result="shadowOffsetInner1"></feOffset>
            <feComposite in="shadowOffsetInner1" in2="SourceAlpha" operator="arithmetic" k2="-1" k3="1" result="shadowInnerInner1"></feComposite>
            <feColorMatrix values="0 0 0 0 1   0 0 0 0 1   0 0 0 0 1  0 0 0 0.3 0" type="matrix" in="shadowInnerInner1"></feColorMatrix>
        </filter>
        <path d="M0,0 L0,12.4729233 C0,15.9185005 2.76914411,18.7093749 6.18505648,18.7093749 L45.7854292,18.7093749 C49.1992852,18.7093749 51.9704857,15.9172204 51.9704857,12.4729233 L51.9704857,0 L37.1319713,0 C37.1319713,0.0186134528 35.5963328,-0.0922679131 34.4948087,0.480752369 C33.6980444,0.895234588 33.0965225,1.77474233 32.824665,2.22968351 C31.8171664,4.24464668 29.5163048,6.23645829 25.9852429,6.23645829 C22.6108928,6.23645829 20.3599712,4.41752038 19.2875989,2.49765244 C19.270742,2.51559482 18.5873968,1.04112211 17.4858728,0.468101827 C16.7819417,0.101912083 15.9007237,0.0150191745 15.3562864,0 L14.9804063,0 C14.896177,0.00253554992 0,0 0,0 Z" id="path-14"></path>
        <path d="M0,0.479960369 L0,12.9528837 C0,16.3984608 2.76914411,19.1893352 6.18505648,19.1893352 L45.7854292,19.1893352 C49.1992852,19.1893352 51.9704857,16.3971808 51.9704857,12.9528837 L51.9704857,0.479960369 L37.1319713,0.479960369 C37.1319713,0.498573822 35.5963328,0.387692456 34.4948087,0.960712738 C33.6980444,1.37519496 33.0965225,2.2547027 32.824665,2.70964388 C31.8171664,4.72460705 29.5163048,6.71641866 25.9852429,6.71641866 C22.6108928,6.71641866 20.3599712,4.89748075 19.2875989,2.97761281 C19.270742,2.99555519 18.5873968,1.52108248 17.4858728,0.948062196 C16.7819417,0.581872452 15.9007237,0.494979544 15.3562864,0.479960369 L14.9804063,0.479960369 C14.896177,0.482495919 0,0.479960369 0,0.479960369 Z" id="path-16"></path>
        <filter x="0.0%" y="0.0%" width="100.0%" height="100.0%" filterUnits="objectBoundingBox" id="filter-17">
            <feOffset dx="0" dy="0" in="SourceAlpha" result="shadowOffsetInner1"></feOffset>
            <feComposite in="shadowOffsetInner1" in2="SourceAlpha" operator="arithmetic" k2="-1" k3="1" result="shadowInnerInner1"></feComposite>
            <feColorMatrix values="0 0 0 0 1   0 0 0 0 1   0 0 0 0 1  0 0 0 0.2 0" type="matrix" in="shadowInnerInner1" result="shadowMatrixInner1"></feColorMatrix>
            <feOffset dx="0" dy="0" in="SourceAlpha" result="shadowOffsetInner2"></feOffset>
            <feComposite in="shadowOffsetInner2" in2="SourceAlpha" operator="arithmetic" k2="-1" k3="1" result="shadowInnerInner2"></feComposite>
            <feColorMatrix values="0 0 0 0 0.274509804   0 0 0 0 0.419607843   0 0 0 0 0.145098039  0 0 0 0.2 0" type="matrix" in="shadowInnerInner2" result="shadowMatrixInner2"></feColorMatrix>
            <feMerge>
                <feMergeNode in="shadowMatrixInner1"></feMergeNode>
                <feMergeNode in="shadowMatrixInner2"></feMergeNode>
            </feMerge>
        </filter>
    </defs>
    <g id="client/hamiwallet" stroke="none" stroke-width="1" fill="none" fill-rule="evenodd">
        <rect id="Rectangle" fill="url(#linearGradient-1)" x="0" y="0" width="400" height="160"></rect>
        <g id="Group" transform="translate(52.000000, 55.000000)">
            <g id="Group-2">
                <mask id="mask-3" fill="white">
                    <use xlink:href="#path-2"></use>
                </mask>
                <use id="base" fill="#36E451" xlink:href="#path-2"></use>
                <path d="M25.9852429,-10.7838758 C28.4309356,-10.7838758 30.5478186,-8.08558874 31.5697325,-4.15748678 L41.5763886,-4.15763886 L41.5763886,8.31527772 L30.9846387,8.31625877 C29.8474673,11.2337836 28.0314362,13.1225476 25.9852429,13.1225476 C23.9390495,13.1225476 22.1230185,11.2337836 20.9858471,8.31625877 L10.3940971,8.31527772 L10.3940971,-4.15763886 L20.4007532,-4.15748678 C21.4226671,-8.08558874 23.5395501,-10.7838758 25.9852429,-10.7838758 Z" id="Combined-Shape" fill="#2FD448" mask="url(#mask-3)"></path>
                <g id="cards" mask="url(#mask-3)">
                    <g transform="translate(5.197049, 16.630555)">
                        <polygon id="card-shadow" fill="url(#linearGradient-4)" fill-rule="evenodd" points="38.4581594 0 62.3645829 23.9064234 38.4581594 23.9064234"></polygon>
                        <g id="card-1" fill="none">
                            <use fill="#FFFDE7" fill-rule="evenodd" xlink:href="#path-6"></use>
                            <use fill="url(#linearGradient-5)" fill-rule="evenodd" style="mix-blend-mode: overlay;" xlink:href="#path-6"></use>
                            <use fill="black" fill-opacity="1" filter="url(#filter-7)" xlink:href="#path-6"></use>
                        </g>
                        <g id="card-2" fill="none">
                            <use fill="#FFDD00" fill-rule="evenodd" xlink:href="#path-9"></use>
                            <use fill="url(#linearGradient-8)" fill-rule="evenodd" style="mix-blend-mode: overlay;" xlink:href="#path-9"></use>
                            <use fill="black" fill-opacity="1" filter="url(#filter-10)" xlink:href="#path-9"></use>
                        </g>
                        <g id="card-3" fill="none">
                            <use fill="black" fill-opacity="1" filter="url(#filter-12)" xlink:href="#path-11"></use>
                            <use fill="#FFB900" fill-rule="evenodd" xlink:href="#path-11"></use>
                            <use fill="url(#linearGradient-8)" fill-rule="evenodd" style="mix-blend-mode: overlay;" xlink:href="#path-11"></use>
                            <use fill="black" fill-opacity="1" filter="url(#filter-13)" xlink:href="#path-11"></use>
                        </g>
                    </g>
                </g>
                <g id="Group-3" mask="url(#mask-3)">
                    <g transform="translate(0.000000, 30.142882)">
                        <mask id="mask-15" fill="white">
                            <use xlink:href="#path-14"></use>
                        </mask>
                        <use id="bottom-piece" stroke="none" fill="#73DD4F" fill-rule="evenodd" xlink:href="#path-14"></use>
                        <g id="紋路" opacity="0.5" stroke="none" stroke-width="1" fill="none" fill-rule="evenodd" mask="url(#mask-15)">
                            <g transform="translate(-16.731094, -13.198201)" fill="#8FED6F" fill-rule="nonzero" id="Combined-Shape">
                                <path d="M39.0859159,63.0287578 C39.248626,62.7089932 39.6397491,62.5816753 39.9595138,62.7443854 C42.8604372,64.2205012 45.7942746,64.890047 48.7068994,64.890047 C50.9726231,64.890047 53.0975291,64.4879478 55.0185752,63.818113 C55.6892908,63.5842464 56.2855378,63.3342081 56.7992465,63.0851263 C56.9772028,62.9988407 57.1315761,62.9192046 57.2613613,62.8483711 C57.3364023,62.8074156 57.3848891,62.7795528 57.4058207,62.7669407 C57.7131285,62.581776 58.1123563,62.6807924 58.2975211,62.9881002 C58.4826859,63.2954079 58.3836694,63.6946358 58.0763616,63.8798005 C58.03982,63.9018183 57.9753143,63.9388863 57.883797,63.9888341 C57.7359852,64.069506 57.5631033,64.1586902 57.3661001,64.254211 C56.808496,64.5245763 56.1660579,64.7939851 55.4463465,65.0449357 C53.3947441,65.7602931 51.1275953,66.1893092 48.7068994,66.1893092 C45.5941275,66.1893092 42.4582855,65.4736628 39.3702882,63.9023558 C39.0505236,63.7396457 38.9232057,63.3485225 39.0859159,63.0287578 Z M36.5925699,59.9121733 C36.7552801,59.5924086 37.1464032,59.4650908 37.4661679,59.6278009 C40.3670913,61.1039167 43.3009287,61.7734625 46.2135535,61.7734625 C48.4792772,61.7734625 50.6041831,61.3713633 52.5252293,60.7015285 C53.1959449,60.4676619 53.7921918,60.2176236 54.3059005,59.9685418 C54.4838569,59.8822562 54.6382301,59.8026201 54.7680154,59.7317866 C54.8430564,59.6908311 54.8915432,59.6629683 54.9124748,59.6503562 C55.2197826,59.4651914 55.6190104,59.5642079 55.8041752,59.8715157 C55.9893399,60.1788234 55.8903235,60.5780513 55.5830157,60.763216 C55.5464741,60.7852338 55.4819683,60.8223018 55.3904511,60.8722496 C55.2426393,60.9529215 55.0697574,61.0421057 54.8727542,61.1376265 C54.31515,61.4079918 53.672712,61.6774006 52.9530006,61.9283512 C50.9013982,62.6437086 48.6342494,63.0727247 46.2135535,63.0727247 C43.1007816,63.0727247 39.9649396,62.3570783 36.8769423,60.7857713 C36.5571776,60.6230611 36.4298598,60.231938 36.5925699,59.9121733 Z M54.7036738,0.385444043 C54.8663839,0.0656793596 55.2575071,-0.0616384955 55.5772717,0.101071654 C55.8970364,0.263781804 56.0243543,0.654904935 55.8616441,0.974669618 C54.3855284,3.87559305 53.7159825,6.80943038 53.7159825,9.72205519 C53.7159825,10.1598217 53.7309934,10.5923314 53.7600459,11.0191294 C55.2976271,11.4110797 56.8360575,11.596452 58.3686148,11.596452 C58.5973869,11.596452 58.8247234,11.5923525 59.0505593,11.5842919 C57.8554879,9.91525772 56.8877308,8.0146438 56.1888441,5.86764907 C56.0777897,5.52648785 56.2643282,5.15989471 56.6054895,5.04884039 C56.9466507,4.93778606 57.3132438,5.12432456 57.4242981,5.46548579 C58.1722191,7.76311466 59.2445452,9.7552238 60.583393,11.466463 C62.02808,11.2986879 63.3994945,10.9711089 64.6802906,10.524518 C65.3510063,10.2906513 65.9472532,10.040613 66.4609619,9.79153124 C66.6389183,9.70524561 66.7932915,9.62560948 66.9230768,9.55477598 C66.9981178,9.51382053 67.0466046,9.48595771 67.0675362,9.47334563 C67.1202175,9.4416031 67.1756002,9.41821202 67.2321426,9.40279006 C67.4336068,8.89443473 67.6586841,8.38447631 67.9066294,7.87541351 C68.0637341,7.55285785 68.4525757,7.41873334 68.7751313,7.57583805 C69.097687,7.73294275 69.2318115,8.12178431 69.0747068,8.44433998 C67.6629999,11.3427513 67.0429344,14.2601552 67.0807911,17.1464719 L67.0796265,16.7585371 C67.2766935,16.8569051 67.4739461,16.9510896 67.6711765,17.0411652 C68.2243908,17.2938195 68.736783,17.4949296 69.1946379,17.6494352 C69.3530488,17.7028918 69.4927322,17.7465824 69.6119703,17.7811324 C69.6806522,17.8010335 69.7254852,17.8130584 69.7447511,17.8178367 C70.0929817,17.9042048 70.3052632,18.2565168 70.2188951,18.6047474 C70.132527,18.9529781 69.780215,19.1652596 69.4319844,19.0788914 C69.3057688,19.0475875 69.0836469,18.9832262 68.779211,18.8804927 C68.2802244,18.712107 67.7264217,18.4947436 67.1314261,18.2230076 C67.1297587,18.2222461 67.1280913,18.2214844 67.1264239,18.2207223 C67.2539346,20.0727885 67.6476737,21.8188609 68.2286579,23.4231964 C68.4795008,24.1158764 68.7477153,24.7314898 69.0149336,25.2617688 C69.1075281,25.4455172 69.1929998,25.604914 69.2690394,25.7389299 C69.2771343,25.7531967 69.2847542,25.7665364 69.2918849,25.7789427 C69.6190957,25.6450872 69.9221928,25.5096296 70.2009808,25.3744538 C70.3789372,25.2881681 70.5333104,25.208532 70.6630957,25.1376985 C70.7381367,25.0967431 70.7866235,25.0688802 70.8075551,25.0562682 C71.1148628,24.8711034 71.5140907,24.9701199 71.6992554,25.2774276 C71.8844202,25.5847354 71.7854037,25.9839632 71.478096,26.169128 C71.4415544,26.1911457 71.3770486,26.2282138 71.2855313,26.2781616 C71.1377196,26.3588335 70.9648376,26.4480176 70.7678345,26.5435385 C70.3303084,26.7556816 69.8405517,26.9672357 69.3022169,27.169746 C69.303233,27.2215408 69.2970043,27.2745094 69.2838904,27.3273839 C69.2525864,27.4535995 69.1882251,27.6757214 69.0854916,27.9801573 C68.9171059,28.4791439 68.6997426,29.0329465 68.4280066,29.6279422 C67.6540114,31.3226893 66.597979,33.0160025 65.2159582,34.5971398 C65.2003885,34.6149526 65.1847883,34.6327388 65.1691575,34.6504981 C65.4926659,34.7571974 65.8177726,34.8732817 66.1432658,34.9980246 C66.4782867,35.1264189 66.6457906,35.502091 66.5173963,35.8371119 C66.4663114,35.9704082 66.3760814,36.0771859 66.2648415,36.1493588 C67.8161925,38.0454955 69.051069,40.2775371 69.8944265,42.8683492 C70.0054809,43.2095105 69.8189424,43.5761036 69.4777811,43.6871579 C69.1366199,43.7982123 68.7700268,43.6116738 68.6589724,43.2705125 C67.6739248,40.2444256 66.1261591,37.7482976 64.1479146,35.7258145 L63.991451,35.8810264 C62.57929,37.2372285 60.9547148,38.3996994 59.1044596,39.3288106 C61.8691145,39.4717877 64.6462602,40.1923372 67.3857512,41.5863091 C67.7055159,41.7490193 67.8328337,42.1401424 67.6701236,42.4599071 C67.5074134,42.7796718 67.1162903,42.9069896 66.7965256,42.7442795 C63.8956022,41.2681637 60.9617648,40.5986179 58.04914,40.5986179 C55.9730584,40.5986179 54.015208,40.9362224 52.2240891,41.5080614 C53.5806091,42.6276062 55.0164512,43.5002337 56.4511198,44.1554504 C57.0043341,44.4081047 57.5167263,44.6092148 57.9745813,44.7637204 C58.1329921,44.817177 58.2726755,44.8608677 58.3919136,44.8954177 C58.4605955,44.9153187 58.5054286,44.9273436 58.5246944,44.9321219 C58.8729251,45.01849 59.0852066,45.370802 58.9988385,45.7190326 C58.9124703,46.0672633 58.5601584,46.2795448 58.2119277,46.1931767 C58.0857121,46.1618727 57.8635902,46.0975114 57.5591544,45.9947779 C57.0601677,45.8263922 56.5063651,45.6090288 55.9113694,45.3372929 C54.2166223,44.5632976 52.5233091,43.5072653 50.9421718,42.1252444 C50.9018409,42.0899925 50.8616468,42.0545836 50.8215903,42.0190176 C50.5107494,42.1454094 50.2227127,42.2746022 49.9567929,42.4035386 C49.7788366,42.4898242 49.6244634,42.5694604 49.4946781,42.6402939 C49.4196371,42.6812493 49.3711503,42.7091121 49.3502187,42.7217242 C49.2856841,42.7606088 49.2170958,42.786961 49.1472875,42.8014837 C49.0018754,42.8805455 48.8321831,42.9679566 48.6393894,43.0614364 C48.0817852,43.3318017 47.4393471,43.6012104 46.7196358,43.852161 C46.3473199,43.981981 45.9679053,44.1023708 45.5817625,44.2124776 C45.5189684,44.3994392 45.3706962,44.5560407 45.1676584,44.6221333 C44.9371315,44.6971741 44.6949928,44.6363378 44.5279277,44.4837338 C43.0906937,44.8118372 41.5684933,44.9965345 39.9801887,44.9965345 C39.7434342,44.9965345 39.5065463,44.9923945 39.2695561,44.9840529 C39.238613,45.0318744 39.2010737,45.0745614 39.1592521,45.1113976 C39.22516,45.2952747 39.2891019,45.4833106 39.350939,45.6732753 C39.4619933,46.0144365 39.2754548,46.3810297 38.9342936,46.492084 C38.5931324,46.6031383 38.2265392,46.4165998 38.1154849,46.0754386 C37.9805652,45.6609624 37.8350888,45.2564283 37.6793955,44.8616917 C36.1105519,44.6831005 34.5405704,44.3121486 32.9781809,43.7337927 C32.9258237,43.7228319 32.8743934,43.7045474 32.8246874,43.6792548 C32.8136991,43.6736635 32.8027102,43.6680837 32.791721,43.6625155 C32.0741147,43.3904553 31.3575672,43.0728901 30.6435775,42.7095812 L30.7473031,42.7600467 C28.5276135,41.9222138 26.2963016,41.5335932 24.0773018,41.5335932 C21.8115781,41.5335932 19.6866722,41.9356925 17.765626,42.6055272 C17.0949104,42.8393939 16.4986635,43.0894322 15.9849548,43.338514 C15.8069984,43.4247996 15.6526252,43.5044357 15.5228399,43.5752692 C15.4477989,43.6162247 15.3993121,43.6440875 15.3783805,43.6566996 C15.3653036,43.6645789 15.3520602,43.6719437 15.338674,43.6787997 C15.0642495,44.4043459 14.7431634,45.1302285 14.3751384,45.8534865 C14.2124282,46.1732512 13.8213051,46.3005691 13.5015404,46.1378589 C13.1817757,45.9751488 13.0544579,45.5840256 13.217168,45.264261 C14.6932838,42.3633375 15.3628296,39.4295002 15.3628296,36.5168754 C15.3628296,36.0138369 15.3430088,35.5177397 15.3048376,35.0292739 C14.5889759,35.3527138 13.8419424,35.6419019 13.0624309,35.8956474 C12.7212696,36.0067018 12.3546765,35.8201633 12.2436222,35.479002 C12.1325678,35.1378408 12.3191063,34.7712477 12.6602676,34.6601934 C13.5333791,34.3759793 14.3623723,34.0449198 15.1485998,33.6701912 C14.9662073,32.4562579 14.6718517,31.297759 14.2908956,30.2051996 C14.1547682,29.8147942 14.0131617,29.4496195 13.8694539,29.1112669 C12.9501942,29.2900159 12.0656686,29.5328679 11.220593,29.8275308 C10.5498773,30.0613974 9.95363042,30.3114357 9.43992171,30.5605175 C9.26196535,30.6468031 9.10759213,30.7264392 8.97780683,30.7972727 C8.90276586,30.8382282 8.85427904,30.866091 8.83334746,30.8787031 C8.5260397,31.0638679 8.12681184,30.9648514 7.94164709,30.6575436 C7.75648233,30.3502359 7.8554988,29.951008 8.16280656,29.7658433 C8.19934816,29.7438255 8.26385393,29.7067575 8.35537119,29.6568097 C8.50318296,29.5761378 8.67606491,29.4869536 8.87306806,29.3914328 C9.43067223,29.1210675 10.0731103,28.8516587 10.7928217,28.6007081 C11.5224056,28.3463151 12.2792481,28.1281338 13.0605611,27.9525805 C12.308967,25.7704128 11.2581061,23.8706965 9.96090843,22.2310976 C7.08514899,22.1294818 4.19559568,21.408124 1.34676293,19.9585142 C1.02699825,19.7958041 0.899680395,19.404681 1.06239054,19.0849163 C1.22510069,18.7651516 1.61622383,18.6378337 1.93598851,18.8005439 C4.19524677,19.9501526 6.47446863,20.6105446 8.748086,20.8464469 C8.3771141,20.4617287 7.99033665,20.0944385 7.58904196,19.7436798 C6.10828621,18.4493991 4.52099985,17.4594903 2.93514731,16.7352275 C2.38193305,16.4825732 1.86954083,16.2814631 1.4116859,16.1269575 C1.25327504,16.0735009 1.11359162,16.0298102 0.994353536,15.9952602 C0.925671663,15.9753592 0.880838585,15.9633343 0.86157273,15.958556 C0.513342075,15.8721879 0.301060567,15.5198759 0.387428712,15.1716453 C0.473796857,14.8234146 0.826108795,14.6111331 1.17433945,14.6975013 C1.30055505,14.7288052 1.52267696,14.7931665 1.82711281,14.8959 C2.32609945,15.0642857 2.8799021,15.2816491 3.47489772,15.553385 C5.16964482,16.3273803 6.8629581,17.3834126 8.44409535,18.7654335 C9.20969209,19.4346168 9.92598519,20.1603376 10.5873749,20.9444704 L10.6833741,20.9462055 C12.2192963,20.9462055 13.6905069,20.7614243 15.077367,20.433719 C14.7954586,18.7000036 14.317372,17.1017111 13.6679094,15.6316199 C12.4168161,15.8772009 11.1067688,16.0122986 9.74836936,16.0122986 C6.63559745,16.0122986 3.49975549,15.2966523 0.411758213,13.7253452 C0.0919935296,13.5626351 -0.0353243255,13.1715119 0.127385824,12.8517473 C0.290095974,12.5319826 0.681219105,12.4046647 1.00098379,12.5673749 C3.90190722,14.0434906 6.83574455,14.7130365 9.74836936,14.7130365 C10.8971568,14.7130365 12.009743,14.6096655 13.0779107,14.4204373 C12.3013499,12.958741 11.3458548,11.6372984 10.2404893,10.4472586 C9.11946292,9.24035808 7.9182647,8.25121553 6.7187581,7.4658946 C6.30078497,7.19224621 5.91386404,6.96404193 5.56835364,6.77948393 C5.4490132,6.71573697 5.3438775,6.66219971 5.254244,6.6186429 C5.20288714,6.59368637 5.16960624,6.57823845 5.15569952,6.5720673 C4.82775695,6.42654166 4.6798788,6.04271983 4.82540443,5.71477726 C4.97093007,5.38683468 5.3547519,5.23895653 5.68269447,5.38448217 C5.77957045,5.42747121 5.94894511,5.50977771 6.18050902,5.63347 C6.55923507,5.8357705 6.97932046,6.08353504 7.43043105,6.37887863 C8.71402083,7.21924909 9.99591898,8.27484506 11.1924492,9.56303315 C12.4563072,10.9237066 13.5373774,12.4465772 14.3968749,14.1377327 C14.9668952,13.9956349 15.5214814,13.8288901 16.0600452,13.6411025 C16.7307608,13.4072358 17.3270077,13.1571975 17.8407164,12.9081157 C18.0186728,12.8218301 18.173046,12.742194 18.3028313,12.6713605 L18.2242611,12.7131705 C18.1625963,12.5164415 18.0981023,12.3216999 18.0309145,12.1290094 C17.7970478,11.4582938 17.5470095,10.8620469 17.2979278,10.3483382 L17.3404838,10.44142 C15.3905951,8.34615126 13.8582937,5.79646662 12.8669587,2.75106457 C12.7559043,2.40990334 12.9424428,2.0433102 13.2836041,1.93225588 C13.6247653,1.82120155 13.9913584,2.00774005 14.1024127,2.34890128 C14.9109394,4.83271225 16.098576,6.95948347 17.5921965,8.76035571 C17.7920863,8.77671006 17.9811328,8.88622373 18.092602,9.071223 C18.1146197,9.1077646 18.1516878,9.17227037 18.2016356,9.26378764 C18.2823075,9.41159941 18.3714916,9.58448135 18.4670125,9.7814845 L18.4259499,9.6991038 C18.8307723,10.1250863 19.2543151,10.5305934 19.6953965,10.9161284 C21.1761522,12.210409 22.7634386,13.2003179 24.3492911,13.9245807 C24.9025054,14.177235 25.4148976,14.3783451 25.8727525,14.5328507 C26.0311634,14.5863073 26.1708468,14.6299979 26.2900849,14.6645479 C26.3587668,14.684449 26.4035998,14.6964739 26.4228657,14.7012522 C26.8461419,14.0856914 27.3156956,13.4811761 27.830479,12.8922247 C28.5631263,12.0540203 29.3635435,11.2749146 30.2341905,10.5622567 C28.2290105,8.4454862 26.6560393,5.85590336 25.6453565,2.75106457 C25.5343022,2.40990334 25.7208407,2.0433102 26.0620019,1.93225588 C26.4031631,1.82120155 26.7697563,2.00774005 26.8808106,2.34890128 C27.8459435,5.31380998 29.3512717,7.76997134 31.2724151,9.77035268 C32.9375432,8.57970198 34.833211,7.61563831 36.9737891,6.91884032 C37.3149503,6.80778599 37.6815435,6.99432449 37.7925978,7.33548572 C37.9036521,7.67664694 37.7171136,8.04324008 37.3759524,8.1542944 C35.4468447,8.78225483 33.7331107,9.638902 32.2201606,10.689976 L32.4737943,10.9161284 C33.4009965,11.7265658 34.3699679,12.4176631 35.354202,12.9989279 C36.0160013,12.0407199 36.5660584,11.0585984 37.0143448,10.0770263 C37.2669992,9.523812 37.4681092,9.01141977 37.6226148,8.55356485 C37.6760714,8.39515398 37.7197621,8.25547057 37.7543121,8.13623248 C37.7742131,8.06755061 37.786238,8.02271753 37.7910163,8.00345168 C37.8773845,7.65522102 38.2296964,7.44293951 38.5779271,7.52930766 C38.9261577,7.6156758 39.1384392,7.96798774 39.0520711,8.3162184 C39.0207671,8.442434 38.9564058,8.6645559 38.8536723,8.96899176 C38.6852866,9.46797839 38.4679233,10.0217811 38.1961873,10.6167767 C37.7348481,11.6269293 37.1733082,12.6365725 36.5022605,13.6222554 C36.7091751,13.728831 36.9184445,13.8290182 37.127689,13.9245807 C37.6809032,14.177235 38.1932954,14.3783451 38.6511504,14.5328507 C38.7442215,14.564258 38.8308281,14.5922943 38.9106217,14.6170862 L39.0505356,14.450517 C40.3280414,12.988953 41.8115968,11.707075 43.5142442,10.6438439 C43.3341452,9.41769501 43.0376331,8.24642381 42.6527055,7.14247422 C42.4188388,6.47175858 42.1688005,5.87551165 41.9197188,5.36180294 C41.8334331,5.18384659 41.753797,5.02947336 41.6829635,4.89968807 C41.642008,4.8246471 41.6141452,4.77616027 41.6015331,4.75522869 C41.4163684,4.44792093 41.5153849,4.04869308 41.8226926,3.86352832 C42.1300004,3.67836356 42.5292282,3.77738003 42.714393,4.08468779 C42.7364107,4.12122939 42.7734788,4.18573516 42.8234266,4.27725243 C42.9040984,4.4250642 42.9932826,4.59794614 43.0888035,4.79494929 C43.3591688,5.35255346 43.6285775,5.99499154 43.8795281,6.7147029 C44.2374171,7.74110716 44.5236366,8.8214614 44.7203207,9.94800202 C45.5708776,9.49421289 46.4715252,9.09141862 47.422998,8.74339704 C47.2550624,8.30563233 47.0805028,7.90626184 46.9064106,7.54721225 C46.820125,7.36925589 46.7404888,7.21488266 46.6696553,7.08509737 C46.6286999,7.0100564 46.6008371,6.96156957 46.588225,6.94063799 C46.4030602,6.63333023 46.5020767,6.23410238 46.8093845,6.04893762 C47.1166922,5.86377287 47.5159201,5.96278933 47.7010848,6.27009709 C47.7231025,6.30663869 47.7601706,6.37114446 47.8101184,6.46266173 C47.8907903,6.6104735 47.9799745,6.78335544 48.0754953,6.98035859 C48.3458606,7.53796276 48.6152694,8.18040085 48.86622,8.9001122 L48.7374757,8.54286358 C48.8632811,8.62084618 48.9632521,8.74201291 49.0126544,8.89377797 C49.0590249,9.03622901 49.0535112,9.183114 49.0065214,9.31397891 C49.0196144,9.35689894 49.0334961,9.40006365 49.0472497,9.44331846 C49.2228411,9.35967132 49.4342364,9.3556403 49.6212293,9.45079037 C50.557364,9.92713636 51.4969263,10.3194888 52.4380973,10.6324523 L52.423235,10.2384029 L52.423235,10.2384029 L52.4167204,9.72205519 C52.4167204,6.60928328 53.1323667,3.47344132 54.7036738,0.385444043 Z M41.3874717,38.4618424 L41.3770425,38.5355105 C41.1196192,40.2593668 40.6302685,41.9834294 39.8853802,43.6957403 L39.9801887,43.6972724 C41.385511,43.6972724 42.7366587,43.5425792 44.0185888,43.2652547 C43.3391645,41.4692962 42.451962,39.8727479 41.3874717,38.4618424 Z M39.4955743,36.3190938 C38.6092979,36.2221345 37.6648243,36.3793295 36.7553017,36.752032 C35.9519546,37.081226 35.2554563,37.5581471 34.8730246,37.9808363 C36.3510928,39.5658179 37.5882773,41.4121651 38.5326253,43.5368656 L38.6129808,43.3611663 C39.5444537,41.275547 40.0687565,39.1760869 40.2364616,37.0827628 C40.0631498,36.8926404 39.8855743,36.7073134 39.7044847,36.5258692 Z M28.974332,35.0488846 L28.7623361,35.3458576 C28.0763106,36.3283752 27.5078405,37.3381347 27.0469459,38.3473136 C26.7942916,38.9005279 26.5931815,39.4129201 26.4386759,39.870775 C26.3852194,40.0291859 26.3415287,40.1688693 26.3069787,40.2881074 C26.2989881,40.3156842 26.2922673,40.3394162 26.2867755,40.3591923 C27.886257,40.5334644 29.4872306,40.9076354 31.0803089,41.4974429 C31.1319617,41.5081386 31.1832396,41.5263907 31.2328031,41.5516108 C31.2468172,41.5587418 31.2608321,41.565854 31.2748478,41.5729473 C31.9900196,41.8433558 32.7032334,42.1596598 33.413913,42.5212845 L33.3089019,42.4703336 C34.5601672,42.9427287 35.8151273,43.2723728 37.0694947,43.4701199 C35.9223744,41.104343 34.3775465,39.1296465 32.5225012,37.5082115 C31.3862452,36.5150469 30.1872615,35.7011039 28.974332,35.0488846 Z M45.0917128,33.3443899 C43.9363622,33.9979971 42.7144428,34.5406992 41.4242676,34.9606752 L41.5843897,34.9061798 C41.5917915,35.1300405 41.595551,35.3552975 41.595551,35.5819 C41.595551,35.9285405 41.5866761,36.2754672 41.568733,36.6225819 C43.1213392,38.4101447 44.3835806,40.5100209 45.2856793,42.9445783 C45.6268188,42.8472588 45.9623408,42.7402375 46.2918645,42.6253384 C46.9625801,42.3914717 47.558827,42.1414334 48.0725357,41.8923517 C48.2504921,41.806066 48.4048653,41.7264299 48.5346506,41.6555964 C48.6096916,41.614641 48.6581784,41.5867781 48.67911,41.5741661 C48.74303,41.5356518 48.8109269,41.5094323 48.880047,41.4948248 C49.0259717,41.416108 49.1963037,41.3283419 49.3899393,41.2344539 C49.5210682,41.1708735 49.6568886,41.107346 49.7973022,41.044099 C47.6788081,38.8821014 46.0197801,36.210606 44.9687874,32.9819343 Z M25.8350906,33.733637 L25.6340916,33.9738229 C23.3004117,36.6437308 20.2791428,38.7140252 16.4907815,39.9472073 C16.4480947,39.9611027 16.4050097,39.970339 16.3620769,39.9751965 C16.246622,40.6296927 16.0973417,41.2860983 15.9127795,41.9417046 C16.3440103,41.748655 16.8210071,41.5589202 17.3378547,41.3787046 C19.3894571,40.6633472 21.6566059,40.2343311 24.0773018,40.2343311 C24.3819859,40.2343311 24.6868909,40.2411876 24.9919505,40.2550319 L24.992947,40.2029918 L24.992947,40.2029918 L25.0092197,40.1081215 C25.0405237,39.9819059 25.1048849,39.759784 25.2076184,39.4553481 C25.3760041,38.9563615 25.5933675,38.4025588 25.8651035,37.8075632 C26.3790062,36.6823172 27.0172433,35.5577032 27.7926796,34.466136 C27.2684986,34.2287525 26.7819975,34.0389074 26.3451451,33.8914892 C26.1867343,33.8380326 26.0470508,33.7943419 25.9278128,33.7597919 C25.8893093,33.7486353 25.858301,33.739954 25.8350906,33.733637 Z M54.2854512,35.417144 L53.8290541,35.5326519 C52.8990192,35.7812252 52.0056627,36.095252 51.1529117,36.4633352 C50.3563419,36.8071683 49.6503421,37.1749722 49.0437078,37.5415901 C48.9336836,37.6080829 48.8313199,37.6719225 48.7367727,37.7326568 C49.4443705,38.7499185 50.2383388,39.6760747 51.1097157,40.5159877 L51.3096929,40.4437292 C52.6058973,39.9917657 53.9881419,39.6541018 55.4407907,39.4667196 C55.5051221,39.4091582 55.5826827,39.3636513 55.6704847,39.3350701 C56.8907045,38.9378659 58.0247544,38.4491652 59.0763267,37.8776383 C58.5887009,37.7115455 58.0487097,37.4986034 57.4697106,37.2341731 C56.3983932,36.7448998 55.3276488,36.1429242 54.2854512,35.417144 Z M22.6012327,29.4552639 L22.5746064,29.4883458 L22.5746064,29.4883458 L22.205741,29.922263 C20.6394106,31.7142644 18.763329,33.2361466 16.5534574,34.4160991 C16.6247377,35.1016715 16.6620918,35.8025888 16.6620918,36.5168754 C16.6620918,37.194793 16.6281482,37.8738049 16.5588147,38.5531785 C19.8962511,37.3804451 22.5687112,35.5066102 24.6558454,33.1187695 C25.2792323,32.4055673 25.8320098,31.6676516 26.3185049,30.9170858 L26.2796544,30.9012584 C25.0580035,30.2796294 23.8305154,29.8010424 22.6012327,29.4552639 Z M62.6900101,35.3168705 C60.8430929,34.91765 59.019334,34.8055441 57.2277108,34.9480119 C56.8600894,34.9772448 56.496718,35.016905 56.1377858,35.0664434 C56.7575326,35.4393003 57.3836085,35.7665022 58.0094611,36.0523307 C58.5626753,36.304985 59.0750675,36.5060951 59.5329225,36.6606007 C59.6913333,36.7140573 59.8310167,36.7577479 59.9502548,36.7922979 C60.0189367,36.812199 60.0637698,36.8242239 60.0830356,36.8290022 C60.2300161,36.8654563 60.3527773,36.9492882 60.4390852,37.0601939 C61.1308088,36.6060578 61.7829157,36.1107668 62.3958399,35.5789991 Z M31.9369176,31.8231913 L31.8972702,31.8565063 C31.2386054,32.4279582 30.6251896,33.0415341 30.0553982,33.693419 C29.9635292,33.7985241 29.8731937,33.904166 29.7843779,34.010306 C31.0137852,34.6890095 32.2254492,35.5229472 33.3775546,36.5299652 C33.5753255,36.7028303 33.7698064,36.8794683 33.9609007,37.0599114 C34.5001698,36.4820039 35.3299734,35.9319843 36.2626507,35.5497936 C36.8497381,35.309218 37.4534556,35.1418602 38.0577504,35.0565153 C36.7822118,34.042968 35.44158,33.2416111 34.1019713,32.6298085 C33.5487571,32.3771542 33.0363649,32.1760441 32.5785099,32.0215385 C32.4200991,31.9680819 32.2804156,31.9243912 32.1611776,31.8898412 C32.0924957,31.8699402 32.0476626,31.8579153 32.0283968,31.853137 C31.9967394,31.8452853 31.9662056,31.8352358 31.9369176,31.8231913 Z M49.1951959,30.3218641 L49.1303441,30.3829403 C48.2181524,31.2237299 47.2513438,31.9831087 46.2286024,32.6518554 C46.7050454,34.1007248 47.3120022,35.4279963 48.0338803,36.6393529 C48.1394479,36.5721373 48.2516973,36.5021387 48.3716918,36.4296204 C49.0271741,36.0334814 49.7852863,35.6385285 50.6380144,35.2704551 C51.2448577,35.008516 51.8709236,34.7722334 52.5150723,34.5651991 L52.7463499,34.4944366 C52.7227548,34.3963498 52.7217291,34.291296 52.7476931,34.1866109 L52.7406012,34.2262871 L52.500513,34.0221247 C51.261756,32.9393674 50.1520767,31.708594 49.1951959,30.3218641 Z M38.7398005,28.0464361 L38.7117283,28.0640231 L38.7117283,28.0640231 L38.6226253,28.1004353 C36.5643381,28.770446 34.7512345,29.7007963 33.1655934,30.8498725 C33.6179592,31.0084251 34.1136145,31.2067781 34.6417217,31.447966 C36.3364688,32.2219613 38.0297821,33.2779936 39.6109194,34.6600145 C39.7741945,34.802728 39.9352272,34.9480129 40.0939632,35.0958875 C40.1593858,35.1082339 40.2250038,35.1220169 40.2903754,35.1369779 L40.2892121,35.0615691 C40.2328432,32.990474 39.8426638,31.0434976 39.2243548,29.2702242 C39.2123342,29.2357498 39.2002709,29.2014721 39.1881671,29.1673922 C39.1268967,29.1035136 39.0797956,29.0242525 39.0504896,28.9342238 C38.9524565,28.6330641 38.84885,28.3371534 38.7398005,28.0464361 Z M55.857051,30.4116 L55.6827665,30.7004047 C55.3472827,31.2722662 55.0487876,31.8491294 54.7854193,32.425803 C54.532765,32.9790173 54.3316549,33.4914095 54.1771493,33.9492645 L54.2388143,33.7709802 C54.3489786,33.8563245 54.4595921,33.9401066 54.5706137,34.0223413 C55.3974873,33.8471915 56.2496345,33.722424 57.12472,33.6528382 C58.7417329,33.5242551 60.3831123,33.5896859 62.0411225,33.8692905 C60.8641609,32.9729712 59.6376993,32.2545701 58.4120941,31.6948331 C57.8588798,31.4421788 57.3464876,31.2410687 56.8886327,31.0865631 C56.7302218,31.0331065 56.5905384,30.9894159 56.4713003,30.9548659 C56.4026184,30.9349649 56.3577854,30.92294 56.3385195,30.9181616 C56.0852608,30.8553484 55.9039092,30.6518708 55.857051,30.4116 Z M67.8205535,27.6627825 C66.0479884,28.1789141 64.1319472,28.4786366 62.1086337,28.4786366 L62.3973047,28.4748004 C62.0615706,29.4923961 61.6392261,30.5073553 61.1253744,31.5171978 C61.1047227,31.5577833 61.0803915,31.5952686 61.0529935,31.6294542 C62.0323019,32.2193321 62.9958751,32.9163806 63.9210421,33.7250391 C63.983219,33.7793859 64.0450706,33.8341056 64.1065941,33.8891991 L64.2377119,33.7420864 C65.5319925,32.2613307 66.5219013,30.6740443 67.2461641,29.0881918 C67.4988185,28.5349775 67.6999286,28.0225853 67.8544341,27.5647303 Z M47.2508976,27.7257207 C46.1245568,27.3502856 44.6895909,27.4752083 43.2817047,28.0020962 C42.0900561,28.4480593 41.0967766,29.1373488 40.8660391,29.5874081 C40.8337277,29.6504323 40.7925383,29.7059303 40.7447794,29.7531585 C41.1043499,30.9595282 41.3633653,32.2338328 41.4956,33.5639571 C44.1207932,32.6308543 46.4440163,31.1416138 48.4814997,29.2106928 C48.1952803,28.7308417 47.9260266,28.234234 47.6745712,27.7204785 C47.54318,27.7685084 47.394586,27.7736154 47.2508976,27.7257207 Z M29.6835925,26.7751041 C29.6482002,26.9066097 29.5892364,27.1031438 29.5036251,27.3568404 C29.3352394,27.855827 29.1178761,28.4096296 28.8461401,29.0046253 C28.2857474,30.2316662 27.5775071,31.4579555 26.7047375,32.6414616 L26.760572,32.6604317 C27.2595587,32.8288174 27.8133613,33.0461808 28.4083569,33.3179167 C28.4720517,33.3470063 28.5357444,33.3764942 28.5994292,33.4063829 L28.7082865,33.2722828 L28.7082865,33.2722828 L29.0771519,32.8383656 C29.8264627,31.9810969 30.6466611,31.1856459 31.5403788,30.4598744 C31.0398454,29.1393713 30.425297,27.9261488 29.7102169,26.8155027 Z M17.5322688,28.7555968 C16.732088,28.7555968 15.949471,28.8057496 15.1871948,28.9001366 C15.3005721,29.1782931 15.4108198,29.4708499 15.5177183,29.7774283 C15.8783469,30.8116897 16.1662045,31.9007302 16.3630119,33.0366066 C18.2497559,31.9685085 19.8636016,30.6276074 21.2274947,29.0672096 L21.182186,29.1146297 C19.9644747,28.871965 18.7465284,28.7555968 17.5322688,28.7555968 Z M52.7858617,26.1978754 C52.3729753,26.7799636 51.9337664,27.3534774 51.4675814,27.9143904 C51.0395289,28.4294224 50.5967263,28.9242768 50.1389826,29.3976161 C51.0617109,30.7717876 52.1422875,31.9833906 53.3555664,33.0438784 L53.1803737,32.8879611 C53.3034538,32.5700031 53.4441584,32.2351167 53.6035769,31.8860526 C54.267299,30.4327605 55.1384181,28.9805227 56.2446492,27.5991718 C55.0837844,27.2454193 53.924571,26.7781499 52.7720226,26.1916833 Z M57.6261854,27.9703516 L57.4484033,28.178311 C57.0482199,28.662445 56.6794087,29.1566642 56.3406657,29.6573333 C56.4408253,29.632176 56.5462414,29.6310537 56.6512862,29.6571069 C56.7775018,29.6884109 56.9996237,29.7527721 57.3040596,29.8555056 C57.8030462,30.0238913 58.3568489,30.2412547 58.9518445,30.5129907 C59.2810352,30.6633329 59.6101717,30.8243163 59.9384426,30.9962631 L59.9674041,30.9279722 C60.3867168,30.1039216 60.740945,29.2772151 61.0332297,28.4490933 C59.8981901,28.3893284 58.761465,28.2317045 57.6261854,27.9703516 Z M26.2313909,22.8099917 L26.2012599,22.9120612 C26.1684149,23.0214231 26.1266412,23.1530626 26.0752745,23.3052805 C25.9068888,23.8042671 25.6895254,24.3580698 25.4177894,24.9530654 C24.8949343,26.0979138 24.243375,27.242108 23.4495628,28.3515094 C24.5923457,28.70378 25.7338448,29.1657329 26.8688799,29.743288 C26.9094655,29.7639397 26.9469508,29.788271 26.9811363,29.8156689 C27.2305399,29.3676398 27.4581766,28.9161993 27.6642976,28.4648749 C27.9169519,27.9116606 28.118062,27.3992684 28.2725676,26.9414134 C28.3260242,26.7830026 28.3697149,26.6433192 28.4042649,26.5240811 C28.4241659,26.4553992 28.4361908,26.4105661 28.4409691,26.3913003 C28.5150586,26.0925763 28.7848505,25.8938944 29.0798882,25.8979611 C28.256293,24.7727712 27.320677,23.7619005 26.2891364,22.8602643 C26.2699058,22.8434554 26.2506572,22.8266979 26.2313909,22.8099917 Z M36.1328747,23.2488215 L36.0527674,23.2560362 C34.5483148,23.4185381 33.1206519,23.7539469 31.7906968,24.2176786 C31.1199812,24.4515453 30.5237343,24.7015836 30.0100256,24.9506654 C30.0058384,24.9526956 30.0016642,24.9547222 29.9975031,24.956745 C31.0424093,26.3487084 31.9244011,27.9089189 32.6183396,29.6454592 C34.2585608,28.4881842 36.1218057,27.5481328 38.2204621,26.8649812 L38.1720045,26.8810159 C38.0997333,26.7601301 38.0713002,26.625157 38.0821033,26.4946512 C37.5269222,25.3184289 36.8732829,24.2382605 36.1328747,23.2488215 Z M38.1023726,23.1457446 L37.6603772,23.1508534 C38.5447391,24.4428981 39.297034,25.8695311 39.8982666,27.4371112 C40.0179506,27.707069 40.1369337,27.9954897 40.2531201,28.2998142 C40.8476225,27.7279396 41.7793211,27.1770826 42.8263138,26.7852556 C44.263343,26.2474611 45.7484062,26.0619009 47.056337,26.3311626 C46.8655355,25.860803 46.6891105,25.3764263 46.5271286,24.8788146 L46.6299292,25.1811201 C43.8006747,23.781902 40.9414463,23.1457446 38.1023726,23.1457446 L38.1023726,23.1457446 Z M53.9297134,21.7807498 C52.2125194,23.157706 50.2351666,24.2750254 47.9732476,25.0849434 C48.3779083,26.2192046 48.8668764,27.276146 49.4300102,28.2586942 C49.7855573,27.8808286 50.131637,27.48909 50.4683729,27.08393 C51.8546229,25.4159964 52.9939688,23.6264449 53.9010658,21.8374066 C53.9106626,21.8184791 53.9202118,21.7995934 53.9297134,21.7807498 Z M20.3822187,19.3373306 C20.2568904,22.1548245 19.5356874,24.9856121 18.1151573,27.7772964 L18.2659008,27.4696389 C19.54355,27.5160743 20.8241419,27.6846783 22.1027875,27.9851033 C22.9803187,26.8268863 23.6849944,25.6196858 24.235947,24.413315 C24.4886013,23.8601007 24.6897114,23.3477085 24.844217,22.8898536 C24.8976736,22.7314427 24.9413642,22.5917593 24.9759142,22.4725212 C24.9958152,22.4038393 25.0078402,22.3590063 25.0126185,22.3397404 C25.0471215,22.2006265 25.1240666,22.0832088 25.2262386,21.9978602 C24.0615835,21.114899 22.8479934,20.4056787 21.6352417,19.851812 C21.0820275,19.5991577 20.5696352,19.3980476 20.1117803,19.243542 Z M18.9924482,20.475905 L18.6332134,20.6332286 C18.2586565,20.7933085 17.854648,20.9505238 17.4228212,21.1010941 C15.6264503,21.7274569 13.6648275,22.1342917 11.5795722,22.2258229 C12.5707456,23.6151007 13.4051366,25.1670424 14.0581216,26.8880283 C14.1768622,26.9404622 14.2808058,27.0282882 14.3525831,27.1474131 C14.3746008,27.1839547 14.4116689,27.2484605 14.4616167,27.3399778 C14.5147762,27.4373798 14.571632,27.5456679 14.6315615,27.6645707 C15.3656546,27.5580503 16.1179094,27.490808 16.886583,27.4665249 C16.8886142,27.3735409 16.9114347,27.2779848 16.9571869,27.1880708 C18.0899533,24.9619116 18.7477326,22.7163694 18.9924482,20.475905 Z M66.4645571,22.1343664 L66.4502017,22.1425126 L66.4502017,22.1425126 L66.3610987,22.1789247 C65.3004984,22.5241698 64.3049984,22.9385394 63.3721741,23.41634 C63.2976028,24.6659985 63.1029013,25.9173555 62.7813298,27.1663487 C64.7950996,27.0967256 66.6903637,26.710642 68.4203095,26.1074405 L68.0553422,26.2296858 C67.9921683,26.1139261 67.9250228,25.9860768 67.8546634,25.8464525 C67.5648678,25.2713703 67.2760683,24.6085096 67.0070315,23.8655887 C66.8037434,23.304227 66.6219514,22.7267521 66.4645571,22.1343664 Z M62.0053766,24.1908275 L61.74911,24.3508278 C60.6095649,25.0845143 59.5780037,25.9240321 58.6487454,26.8560407 C59.5786842,27.032467 60.5082357,27.1343821 61.4360607,27.167424 C61.7107411,26.1743164 61.8984643,25.1820661 62.0053766,24.1908275 Z M56.2497427,19.5938695 L56.2074302,19.6423784 C56.2139332,19.7281315 56.2034133,19.8165898 56.1735833,19.9030569 C56.1610634,19.9393479 56.1376455,20.0042771 56.1030498,20.0959467 C56.0466796,20.245313 55.9785789,20.4175993 55.8984649,20.6109088 C55.671106,21.1595096 55.3923501,21.7692509 55.0598841,22.4249628 C54.6033791,23.3253129 54.0907824,24.2255441 53.5198892,25.1120752 C54.7337904,25.7188339 55.954062,26.1835742 57.1759588,26.5174978 C58.173947,25.4321023 59.2926994,24.4532536 60.5367085,23.5971893 C60.1227451,22.4926661 59.3484249,21.5545385 58.3104753,20.7742752 C57.7320625,20.339462 57.1090634,19.9817905 56.4862438,19.6979734 C56.4050385,19.6609683 56.326107,19.6262774 56.2497427,19.5938695 Z M31.4084682,18.8043109 L31.3343499,18.8563494 C29.8924019,19.857925 28.2810098,20.6936982 26.4911725,21.3367803 C26.710554,21.510888 26.9284164,21.6934175 27.1441898,21.882018 C27.863516,22.5107577 28.539318,23.1894075 29.1669512,23.9195222 L29.2542443,23.8749087 L29.2542443,23.8749087 L29.4431719,23.7815807 C30.0007761,23.5112153 30.6432142,23.2418066 31.3629255,22.990856 C32.5107956,22.590614 33.7261401,22.2800082 34.9981003,22.0840274 C34.9715591,22.0078851 34.959662,21.9253785 34.9643461,21.8412566 C34.4895018,21.3197304 33.986098,20.8290219 33.4575059,20.3669967 C32.7927093,19.7859195 32.10644,19.2661923 31.4084682,18.8043109 Z M44.3374241,18.6462624 L44.2771205,18.8699801 C43.9084581,20.1818603 43.3985512,21.4905518 42.7369482,22.7907612 L42.9130512,22.4332365 C44.224213,22.7583345 45.5330056,23.2227359 46.8341544,23.8368548 C47.5758649,22.2735238 48.0852542,20.6993273 48.3843015,19.125033 C47.0365208,19.1047745 45.6860328,18.9485359 44.3374241,18.6462624 Z M54.3310718,18.3382966 L54.0983767,18.4035334 C52.714168,18.7824303 51.2454259,19.0288754 49.7089024,19.1043188 C49.4485969,20.5831619 49.0156427,22.0617793 48.3952354,23.5321209 C50.9385811,22.4923262 53.0686791,21.0220414 54.8247327,19.21542 C54.7868926,19.1794013 54.7541306,19.1378241 54.726229,19.0915174 C54.7042113,19.0549758 54.6671433,18.9904701 54.6171955,18.8989528 C54.5365236,18.751141 54.4473394,18.5782591 54.3518186,18.3812559 C54.3449022,18.3669916 54.3379865,18.3526718 54.3310718,18.3382966 Z M60.0393257,13.5679424 L60.0016255,13.6633278 C59.909985,13.8872725 59.8099903,14.1186798 59.7012959,14.3566781 C59.0503962,15.7818941 58.2000355,17.206096 57.1240743,18.5634211 C57.793823,18.8740207 58.4624281,19.2630721 59.0911854,19.7357312 C60.2353641,20.5958506 61.1241233,21.6392558 61.6520642,22.8836786 C61.8015741,22.7940958 61.9538292,22.7061962 62.1077519,22.6199918 L62.1130656,22.1805866 C62.1130656,19.9148629 61.7109664,17.789957 61.0411317,15.8689108 C60.807265,15.1981952 60.5572267,14.6019483 60.3081449,14.0882396 C60.2218593,13.9102832 60.1422232,13.75591 60.0713897,13.6261247 C60.0595995,13.604522 60.0488943,13.5851199 60.0393257,13.5679424 Z M39.0619587,16.5047971 L39.0369571,16.538679 C38.2143098,17.652012 37.5470662,18.8061177 37.0203296,19.959465 C36.7676753,20.5126793 36.5665652,21.0250715 36.4120596,21.4829264 C36.4091289,21.4916112 36.4062275,21.5002398 36.4033554,21.5088117 C36.5127189,21.6344362 36.6192885,21.7630117 36.7243857,21.8931388 C37.177222,21.8623413 37.6369593,21.8464825 38.1023726,21.8464825 C39.2668317,21.8464825 40.4345193,21.9466328 41.6017229,22.1542634 C42.2468992,20.881109 42.7357458,19.6013505 43.0809253,18.3198841 C41.8395663,17.958597 40.6011267,17.4682338 39.3702882,16.8419297 C39.2243087,16.767649 39.1184374,16.6457643 39.0619587,16.5047971 Z M62.0855333,14.9435875 L62.115309,15.018646 L62.115309,15.018646 L62.2679543,15.4411395 C62.9833117,17.4927419 63.4123278,19.7598907 63.4123278,22.1805866 L63.4084108,21.9511915 C64.2167129,21.5709032 65.0665414,21.2339615 65.9589354,20.9434706 C66.0324267,20.9195478 66.1070981,20.9094344 66.180141,20.9117013 C65.9386312,19.7143089 65.7986643,18.4614395 65.7816407,17.1635115 L65.792266,17.5506317 C64.550916,16.8690424 63.3261775,16.0283293 62.1622285,15.0109592 C62.1366081,14.9885653 62.111043,14.9661081 62.0855333,14.9435875 Z M35.7262226,14.6880146 L35.7059031,14.7130765 C35.4759154,15.007307 35.2354154,15.2984948 34.9841389,15.5859743 C34.2297841,16.4490137 33.4035842,17.2494003 32.5028538,17.9791126 C33.1177204,18.4033475 33.7229395,18.8733828 34.3125593,19.3887504 C34.6922702,19.7206433 35.0598532,20.0664436 35.4146251,20.4263798 C35.5366206,20.107816 35.6780806,19.7709423 35.8384872,19.4197146 C36.4125111,18.1628264 37.1416629,16.9067269 38.0438712,15.69659 C37.5978252,15.5404053 37.1086569,15.3442365 36.5879386,15.1064231 C36.3004785,14.9751394 36.0130597,14.8357414 35.7262226,14.6880146 Z M26.7502417,16.5866293 C26.3932664,17.1876578 26.0773327,17.7945202 25.800273,18.4011728 C25.5476187,18.954387 25.3465086,19.4667793 25.192003,19.9246342 C25.1385464,20.083045 25.0948557,20.2227285 25.0603057,20.3419665 L25.0743779,20.2921526 C25.1351494,20.3329724 25.1958334,20.3742057 25.2564243,20.4158547 C25.3094831,20.3779754 25.3710362,20.3459192 25.4386654,20.3239046 C27.1973391,19.7514236 28.777014,18.9888792 30.1887444,18.0622294 C29.7284226,17.8034317 29.265956,17.5696984 28.8036113,17.3585444 C28.250397,17.1058901 27.7380048,16.90478 27.2801498,16.7502744 C27.121739,16.6968178 26.9820556,16.6531271 26.8628175,16.6185771 C26.7941356,16.5986761 26.7493025,16.5866512 26.7300367,16.5818729 Z M18.5773879,13.9921412 L18.4075701,14.0772005 C17.8499659,14.3475658 17.2075278,14.6169745 16.4878165,14.8679251 C15.9895067,15.0416769 15.4784809,15.1985361 14.9556274,15.3364583 C15.5818675,16.8014883 16.049554,18.3848201 16.3366942,20.0882557 L16.5481414,20.0240349 L16.5481414,20.0240349 L16.9950499,19.8742715 C17.6657655,19.6404048 18.2620125,19.3903665 18.7757212,19.1412848 C18.8924328,19.0846948 18.9990006,19.0309651 19.0951411,18.9807029 C19.1002962,18.8004235 19.1028485,18.620514 19.1028485,18.4406852 L19.0996783,18.6439916 C19.0636575,18.5326357 19.0572764,18.4101825 19.0875231,18.2882298 C19.0910607,18.2739666 19.0950444,18.2599315 19.0994557,18.2461356 C19.0867429,16.7602669 18.8991544,15.3363355 18.5773879,13.9921412 Z M19.4986493,12.4460929 L19.5463718,12.5935122 C20.0869152,14.4037309 20.4021106,16.365803 20.4021106,18.4406852 L20.3956012,17.9692871 L20.5272072,18.0124845 C20.9263965,18.1471931 21.3606681,18.3132473 21.8230469,18.5134095 L22.1749921,18.6699695 C22.7640754,18.9390053 23.3529853,19.2421172 23.9370713,19.581151 L23.9609455,19.5092073 C24.1293312,19.0102206 24.3466945,18.456418 24.6184305,17.8614224 C24.9275975,17.1844675 25.2817648,16.5077414 25.6837337,15.838302 C25.6169981,15.8170051 25.5402127,15.7918789 25.4573256,15.7639082 C24.958339,15.5955225 24.4045363,15.3781591 23.8095407,15.1064231 C22.3478257,14.4388543 20.8871773,13.5614775 19.4986493,12.4460929 Z M47.8510964,9.97092301 L47.684447,10.0322102 C46.7013863,10.4023256 45.7778088,10.8347608 44.9115621,11.324461 C44.9855266,12.0199202 45.0239016,12.7301678 45.0239016,13.45415 C45.0239016,14.760462 44.8978647,16.070837 44.6354426,17.3800337 C45.9934514,17.6848356 47.3524689,17.829621 48.7068994,17.829621 L48.5835917,17.8276592 C48.6694656,17.0975304 48.7113313,16.3678817 48.7113313,15.6395593 C48.7113313,13.6237485 48.3930443,11.7194039 47.8510964,9.97092301 Z M49.4292174,10.8044724 C49.8005039,12.3268117 50.0105935,13.9455894 50.0105935,15.6395593 C50.0105935,16.3560252 49.9726799,17.0737134 49.8951454,17.791759 C51.2634774,17.7073868 52.5739864,17.4775327 53.8115374,17.1348438 C53.7255254,16.9194333 53.6423422,16.6945178 53.5610939,16.4615023 C53.0781452,15.0764343 52.7257054,13.5931245 52.547676,12.0306503 C51.3723398,11.6739964 50.1987566,11.2024553 49.0320037,10.6087607 Z M31.1622886,11.4832295 L30.9837079,11.6281675 C30.1976161,12.2783561 29.4734819,12.9867458 28.8087252,13.7472781 C28.3244479,14.3013284 27.8827829,14.870293 27.4817017,15.4485165 C27.5474203,15.469893 27.6188868,15.4933375 27.6955768,15.5192169 C28.1945634,15.6876026 28.748366,15.904966 29.3433617,16.1767019 C30.0145853,16.4832515 30.6855841,16.8340426 31.3494778,17.231806 C32.3238852,16.4821445 33.2076934,15.6441216 34.0058926,14.7309209 C34.2034271,14.5049263 34.3938718,14.2764503 34.5773645,14.0458767 C33.5655404,13.4419553 32.5717638,12.7273811 31.6187409,11.8943747 C31.4645757,11.7596239 31.3124097,11.6225806 31.1622886,11.4832295 Z M43.6757594,12.0881582 L43.6125251,12.1299946 C42.2646433,13.0440863 41.0733995,14.1104482 40.0287819,15.3055704 L40.0287819,15.3055704 L39.7614902,15.620356 C39.8287536,15.6304764 39.8955609,15.6514174 39.9595138,15.6839594 C41.0936197,16.2610417 42.2327561,16.7148485 43.3736889,17.0535673 C43.6115282,15.8520268 43.7246395,14.6512966 43.7246395,13.45415 C43.7246395,12.9928036 43.707968,12.5372956 43.6757594,12.0881582 Z M53.9051825,12.391797 L53.9597353,12.763023 C54.1441835,13.9058048 54.4272363,14.9993215 54.7879165,16.033731 C54.8742482,16.281325 54.9627835,16.518771 55.052661,16.7456632 C55.7104512,16.514936 56.2946646,16.2693567 56.7992465,16.0247003 C56.9772028,15.9384146 57.1315761,15.8587785 57.2613613,15.787945 C57.3364023,15.7469895 57.3848891,15.7191267 57.4058207,15.7065146 C57.4561075,15.676215 57.5088555,15.6535247 57.5627242,15.6381115 C57.9235728,15.0359871 58.241128,14.4263515 58.5194534,13.8169277 C58.6677433,13.4922307 58.7982771,13.1815962 58.9120533,12.8877974 L58.8849626,12.8891995 L58.8849626,12.8891995 L58.3686148,12.8957141 C56.8834883,12.8957141 55.3931103,12.7328105 53.9051825,12.391797 Z M66.6245695,11.1476561 L66.3184542,11.2834751 C65.9438972,11.443555 65.5398888,11.6007703 65.108062,11.7513406 C63.9939128,12.1398247 62.8161953,12.4438617 61.5848391,12.6406012 C62.0375018,13.1307354 62.5160685,13.5946186 63.0172819,14.0327129 C63.9133467,14.8159341 64.8484224,15.487696 65.7985843,16.0565802 C65.8660877,14.422818 66.1350515,12.7839139 66.6245695,11.1476561 Z"></path>
                            </g>
                        </g>
                    </g>
                </g>
                <g id="edge-tint" mask="url(#mask-3)" fill-opacity="1">
                    <g transform="translate(0.000000, 29.662921)" id="bottom-piece">
                        <g>
                            <use fill="black" filter="url(#filter-17)" xlink:href="#path-16"></use>
                        </g>
                    </g>
                </g>
            </g>
            <g id="Group-7" transform="translate(68.444444, 14.666667)">
                <path d="M31.8450804,14.7215689 C36.9115828,8.26015504 48.1957147,11.7901211 48.1957147,11.7901211 C48.1957147,11.7901211 48.8068493,11.9477166 49.2722715,12.1561215 C49.5311251,12.2723804 49.7042656,12.5488184 49.6562663,12.8295622 C49.6562663,12.8295622 47.5211525,23.5951406 51.0491044,31.6609279 C51.2908154,32.0217612 51.0662471,32.4402934 50.6856808,32.646976 C46.2337415,35.0668844 44.9609017,33.035367 44.9609017,33.035367 C44.7200478,32.6426701 44.486051,32.1655778 44.2597684,31.6040902 C44.0343429,31.0443249 43.9194873,30.734301 43.7694893,29.9764649 C43.3366381,31.1313038 42.4289362,32.1492154 41.4338069,32.9225527 C40.4378204,33.6950288 39.1264097,34.0816975 37.4978605,34.0816975 C36.0201663,34.0816975 34.7310411,33.8078431 33.6304846,33.2627178 C32.5290711,32.7175925 31.6179406,31.952867 30.8936648,30.9685413 C30.1702461,29.9842155 29.6345391,28.7949296 29.2882581,27.4006834 C28.9411199,26.0072984 28.7705508,24.461485 28.7679794,22.7649656 C28.7619795,18.6183965 31.8450804,14.7215689 31.8450804,14.7215689 Z M95.8545225,10.9524539 C96.2205175,10.9524539 96.5170849,11.2504212 96.5170849,11.618144 L96.5170849,11.618144 L96.5172943,26.777801 C96.5222718,26.9988774 96.6236875,30.8958702 97.6253555,32.8668346 C97.8327813,33.2741715 97.5936417,33.7598755 97.1427907,33.8296309 C96.6070837,33.9123039 95.8982362,33.9803369 95.1148183,33.9484733 C93.3971274,33.878718 92.0308603,33.4739646 90.9534464,32.6076202 C89.7037492,31.6034873 89.3703251,29.6908124 89.3703251,28.0545754 L89.3703251,28.0545754 L89.3703251,11.618144 C89.3703251,11.2504212 89.6668925,10.9524539 90.0328875,10.9524539 L90.0328875,10.9524539 Z M6.80047877,3.04495097 C7.16647378,3.04495097 7.4638983,3.34291834 7.4638983,3.71064108 L7.4638983,3.71064108 L7.4638983,17.22682 C7.4638983,17.22682 10.578713,13.017385 18.0477541,13.7691928 L18.0477541,13.7691928 L18.0477541,3.71064108 C18.0477541,3.34291834 18.3451786,3.04495097 18.7111736,3.04495097 L18.7111736,3.04495097 L24.803662,3.04495097 C25.1696571,3.04495097 25.4662244,3.34291834 25.4662244,3.71064108 L25.4662244,3.71064108 L25.4662244,33.1456838 C25.4662244,33.5134065 25.1696571,33.8122351 24.803662,33.8122351 L24.803662,33.8122351 L18.7111736,33.8122351 C18.3451786,33.8122351 18.0477541,33.5134065 18.0477541,33.1456838 L18.0477541,33.1456838 L18.0477541,20.2960562 C10.2135751,19.023236 7.4638983,25.5173746 7.4638983,25.5173746 L7.4638983,25.5173746 L7.4638983,33.1456838 C7.4638983,33.5134065 7.16647378,33.8122351 6.80047877,33.8122351 L6.80047877,33.8122351 L0.663419532,33.8122351 C0.297424519,33.8122351 0,33.5134065 0,33.1456838 L0,33.1456838 L0,3.71064108 C0,3.34291834 0.297424519,3.04495097 0.663419532,3.04495097 L0.663419532,3.04495097 Z M79.2488916,10.6345072 C80.4248756,10.6345072 81.4045765,10.8239662 82.1888516,11.2028842 C82.9731266,11.5809411 83.5988323,12.1114264 84.0659688,12.7926177 C84.5331053,13.4746702 84.8725293,14.3082899 85.0833836,15.2917544 C85.2942378,16.2769413 85.4005221,17.3603025 85.4005221,18.5418378 L85.4005221,18.5418378 L85.4005221,33.1000414 C85.4005221,33.4686253 85.1039547,33.7665927 84.7379597,33.7665927 L84.7379597,33.7665927 L78.9163247,33.7665927 C78.5503297,33.7665927 78.2537623,33.4686253 78.2537623,33.1000414 L78.2537623,33.1000414 L78.2537623,20.2719432 C78.2537623,19.2118338 78.1629064,18.3575459 77.9820517,17.7047734 C77.8011971,17.0537233 77.3940598,16.7281983 76.7606398,16.7281983 C76.0372211,16.7281983 75.3583732,17.2500718 74.7249533,18.2955411 C74.0923905,19.3410105 73.776109,20.727506 73.776109,22.4541667 L73.776109,22.4541667 L73.776109,33.1000414 C73.776109,33.4686253 73.4795417,33.7665927 73.1135466,33.7665927 L73.1135466,33.7665927 L67.2464837,33.7665927 C66.8804887,33.7665927 66.5839213,33.4686253 66.5839213,33.1000414 L66.5839213,33.1000414 L66.5839213,20.4140375 C66.5839213,19.3573728 66.5007796,18.5048072 66.3362104,17.8537571 C66.1956409,17.2965754 65.725933,16.8935443 65.1542265,16.8711537 C64.3750943,16.8401514 63.6679611,17.3783872 63.0328269,18.4824166 C62.4139781,19.5588883 62.1054109,21.0056663 62.1054109,22.8236118 L62.1054109,22.8236118 L62.1054109,33.1000414 C62.1054109,33.4686253 61.8088435,33.7665927 61.4428485,33.7665927 L61.4428485,33.7665927 L55.6212136,33.7665927 C55.2552185,33.7665927 54.9586512,33.4686253 54.9586512,33.1000414 L54.9586512,33.1000414 L54.9586512,21.9503779 C54.9586512,20.1332936 54.8300815,18.6253721 54.5737993,17.4283355 C54.317517,16.2321601 54.023521,15.2547238 53.6918113,14.4977489 C53.4749571,13.9887931 53.2418174,13.5392585 52.9915351,13.1508675 C52.7592526,12.7874506 52.9521071,12.3000242 53.3618158,12.1699864 C53.3618158,12.1699864 58.054609,9.35049171 59.9411547,12.8658178 C60.2137224,13.3739124 60.3705774,13.9948213 60.5514321,14.6613726 C61.2748508,13.2378464 62.0222692,12.3008854 63.3045374,11.6334729 C64.5850914,10.9677828 66.0105006,10.6345072 67.5790506,10.6345072 C68.9058897,10.6345072 69.9833036,10.8997498 70.8130066,11.4293739 C71.6418524,11.9598592 72.3129861,12.7245847 72.8264077,13.7244116 C73.6089685,12.6332999 74.5449557,11.8461837 75.6300838,11.3613409 C76.716069,10.876498 77.9220526,10.6345072 79.2488916,10.6345072 Z M41.826373,16.6876368 C41.826373,16.6876368 38.1004237,15.5293533 36.2061638,20.9874955 C36.2061638,20.9874955 34.815897,25.5250391 36.9955816,27.063963 C37.4987176,27.4196293 39.2378368,27.8097426 40.6589603,25.5887662 C40.6589603,25.5887662 42.1306545,24.1368211 41.826373,16.6876368 Z M92.9213339,0 C95.156732,0 96.9695645,1.82052897 96.9695645,4.06734075 C96.9695645,6.31329134 95.156732,8.13468149 92.9213339,8.13468149 C90.6850787,8.13468149 88.8731033,6.31329134 88.8731033,4.06734075 C88.8731033,1.82052897 90.6850787,0 92.9213339,0 Z" id="Combined-Shape" fill="#36E451"></path>
                <path d="M203.710565,9.70655004 C205.117591,9.70655004 206.316073,9.8800712 207.304311,10.2279725 C208.292548,10.5750149 209.101183,11.0594997 209.730216,11.677991 C210.35925,12.2982003 210.8223,13.0232095 211.122771,13.8547366 C211.42069,14.6854048 211.571351,15.5847942 211.571351,16.5511868 C211.571351,17.6395596 211.302374,18.6669423 210.763567,19.6333349 C210.22391,20.6023046 209.452727,21.4544481 208.449168,22.1957786 C207.44646,22.9362501 206.233507,23.5487283 204.81116,24.0314951 C203.388813,24.5151209 201.779204,24.8320977 199.982331,24.9832844 C200.191725,25.8895459 200.57306,26.6231453 201.127188,27.1823645 C201.681316,27.7415837 202.526553,28.0207638 203.665452,28.0207638 C204.323426,28.0207638 205.027364,27.9460294 205.777267,27.7939836 C206.525467,27.6427969 207.214084,27.4770069 207.843117,27.2948955 L207.843117,27.2948955 L207.865248,27.2888824 C207.865248,27.2888824 210.190713,26.715919 211.233427,30.7309582 C211.323654,31.0780005 211.176397,31.3906822 210.876776,31.5246886 C210.211993,31.82019 209.500394,32.0882029 208.741979,32.3270092 C207.933344,32.5692517 206.997029,32.7960318 205.933887,33.0073496 C204.870744,33.2186675 203.740357,33.3243264 202.542726,33.3243264 C200.71521,33.3243264 199.151565,33.0528775 197.848385,32.5082616 C196.545205,31.9645046 195.482914,31.2094299 194.658957,30.2421783 C193.835001,29.2749266 193.23661,28.1049473 192.862085,26.7288042 C192.487559,25.3535202 192.300296,23.8347805 192.300296,22.1725852 C192.300296,20.1478853 192.593107,18.3576967 193.177027,16.8011603 C193.760095,15.244624 194.569582,13.9449333 195.602933,12.9020883 C196.635432,11.8592433 197.840724,11.0663718 199.218809,10.5217559 C200.595191,9.97799899 202.093295,9.70655004 203.710565,9.70655004 Z M188.003293,4.31201764 C188.488474,4.29569634 188.790649,4.54395186 188.790649,4.9631515 L188.790649,4.9631515 L188.790649,26.0794743 C188.790649,26.0794743 188.867256,30.1391823 189.891244,32.1630232 C190.097233,32.5693376 189.85975,33.0538224 189.412021,33.1234027 C188.880024,33.2058682 188.176086,33.2737304 187.398093,33.2419468 C185.692299,33.1723666 184.335494,32.7694882 183.265542,31.9044594 C182.024499,30.9028472 181.693384,28.9949734 181.693384,27.3628437 L181.693384,27.3628437 L181.693501,6.93131659 C181.698412,6.7089918 181.890497,4.51534358 188.003293,4.31201764 Z M176.846765,4.31201764 C177.331946,4.29569634 177.63412,4.54395186 177.63412,4.9631515 L177.63412,4.9631515 L177.634328,26.0892743 C177.639271,26.3097957 177.739985,30.1970063 178.734716,32.1630232 C178.940705,32.5693376 178.703221,33.0538224 178.255493,33.1234027 C177.723496,33.2058682 177.019558,33.2737304 176.241565,33.2419468 C174.535771,33.1723666 173.178966,32.7694882 172.109014,31.9044594 C170.867971,30.9028472 170.536856,28.9949734 170.536856,27.3628437 L170.536856,27.3628437 L170.537461,6.91725856 C170.550826,6.62988073 170.845111,4.51164674 176.846765,4.31201764 Z M148.92161,13.9194205 C153.953024,7.47422606 165.159006,10.9953312 165.159006,10.9953312 C165.159006,10.9953312 165.765908,11.1525311 166.228107,11.3604129 C166.485168,11.47638 166.657109,11.752124 166.609443,12.0321631 C166.609443,12.0321631 164.489116,22.7707178 167.992634,30.8162584 C168.232671,31.176186 168.009658,31.5936676 167.631728,31.7998313 C163.210621,34.2136653 161.946596,32.1872474 161.946596,32.1872474 C161.70741,31.7955363 161.475034,31.3196416 161.250319,30.7595634 C161.026454,30.2012032 160.911543,29.8919576 160.762584,29.1360238 C160.333582,30.2879638 159.431315,31.3033203 158.443929,32.0747164 C157.45484,32.8452534 156.152512,33.2309514 154.535241,33.2309514 C153.067781,33.2309514 151.787584,32.9577844 150.694649,32.4140275 C149.600863,31.8702706 148.696043,31.1074647 147.976783,30.1256098 C147.258375,29.1437549 146.726378,27.9574543 146.382495,26.566708 C146.037761,25.1768207 145.868373,23.6348876 145.86582,21.9426267 C145.85901,17.8064663 148.92161,13.9194205 148.92161,13.9194205 Z M220.818904,4.46251718 C221.224073,4.38434676 221.600301,4.69788747 221.600301,5.11451006 L221.600301,5.11451006 L221.600301,10.3416203 L226.126105,10.3416203 C226.532976,10.3416203 226.84196,10.70842 226.776418,11.1130164 L226.776418,11.1130164 L226.767055,11.1697114 C226.352523,13.724424 224.164952,15.5996551 221.600301,15.5996551 L221.600301,15.5996551 L221.600301,25.7085513 C221.600301,27.0391666 222.288918,27.7031857 223.667003,27.7031857 C224.415203,27.7031857 224.778664,27.6997496 225.46728,27.5477039 C225.46728,27.5477039 227.137325,27.004806 227.959579,31.397812 C228.018312,31.7104937 227.785084,32.1288343 227.488017,32.2138769 C226.973044,32.3607686 226.353374,32.5360078 225.620495,32.712965 C224.558204,32.9689516 223.262685,33.097804 221.73479,33.097804 C219.489338,33.097804 217.729918,32.6296405 216.457381,31.6924544 C215.183993,30.7561273 214.548151,29.1695254 214.548151,26.9326486 L214.548151,26.9326486 L214.548151,15.5996551 L214.542192,10.3416203 L214.542192,6.22092222 C214.542192,5.90222742 214.766056,5.62820142 215.076743,5.56807033 L215.076743,5.56807033 Z M114.182383,2.27211317 C114.488813,2.27211317 114.753535,2.48085397 114.822482,2.78150945 C115.525569,5.84304124 119.161874,21.6764178 119.242738,22.1677747 C119.458941,21.1567133 123.731089,5.69357251 124.544831,2.75316193 C124.623993,2.4662507 124.881905,2.27211317 125.177269,2.27211317 L125.177269,2.27211317 L130.018867,2.27211317 C130.314231,2.27211317 130.572143,2.4662507 130.651304,2.75316193 C131.464196,5.69357251 135.737195,21.1567133 135.953398,22.1677747 C136.034262,21.6764178 139.669716,5.84304124 140.373654,2.78150945 C140.442601,2.48085397 140.707323,2.27211317 141.013753,2.27211317 L141.013753,2.27211317 L146.990844,2.27211317 C147.425805,2.27211317 147.741598,2.6913128 147.624984,3.11394851 L147.624984,3.11394851 L139.546292,32.4751035 C139.467131,32.7628738 139.207517,32.9621654 138.912152,32.9621654 L138.912152,32.9621654 L133.935215,32.9621654 C133.640701,32.9621654 133.383641,32.7697459 133.303628,32.4836937 C132.435409,29.3946734 127.652544,12.3715602 127.598068,12.0966752 C127.54274,12.3715602 122.760727,29.3946734 121.892508,32.4836937 C121.811644,32.7697459 121.554583,32.9621654 121.26007,32.9621654 L121.26007,32.9621654 L116.283984,32.9621654 C115.987768,32.9621654 115.729004,32.7628738 115.649843,32.4751035 L115.649843,32.4751035 L107.571151,3.11394851 C107.454538,2.6913128 107.76948,2.27211317 108.205292,2.27211317 L108.205292,2.27211317 Z M158.833776,15.8805532 C158.833776,15.8805532 155.133631,14.7251772 153.25249,20.1696184 C153.25249,20.1696184 151.871852,24.6957719 154.036441,26.2308329 C154.536092,26.5856063 156.263167,26.9747404 157.674448,24.759339 C157.674448,24.759339 159.13595,23.3110387 158.833776,15.8805532 Z M203.243259,14.8348735 C200.054683,14.7111752 199.652919,19.4898793 199.623127,20.1246919 C200.521137,20.0946263 203.084086,19.6195907 204.243413,18.154969 C204.73285,17.5364777 205.404443,16.2024264 204.5192,15.2910108 C204.192342,14.9551357 203.752274,14.8546309 203.243259,14.8348735 Z" id="Combined-Shape" fill="#FFFFFF"></path>
            </g>
        </g>
    </g>
</svg>