<?xml version="1.0" encoding="UTF-8"?>
<svg width="24px" height="24px" viewBox="0 0 24 24" version="1.1" xmlns="http://www.w3.org/2000/svg" xmlns:xlink="http://www.w3.org/1999/xlink">
    <!-- Generator: Sketch 63.1 (92452) - https://sketch.com -->
    <title>ic/setting_service</title>
    <desc>Created with Sketch.</desc>
    <g id="ic/setting_service" stroke="none" stroke-width="1" fill="none" fill-rule="evenodd">
        <path d="M10.1003906,20.296875 C10.1003906,20.6852417 9.78762049,21 9.40170695,21 L7.79473457,21 C6.25367318,21 5,19.7383575 5,18.1875 L5,5.8125 C5,4.26164246 6.25367318,3 7.79473457,3 L16.3847224,3 C17.9256474,3 19.179457,4.26164246 19.179457,5.8125 L19.179457,9.99609375 C19.179457,10.3844604 18.8665505,10.6992188 18.4807734,10.6992188 C18.0948598,10.6992188 17.7820897,10.3844604 17.7820897,9.99609375 L17.7820897,5.8125 C17.7820897,5.03713988 17.1551849,4.40625 16.3847224,4.40625 L7.79473457,4.40625 C7.02427208,4.40625 6.39736728,5.03713988 6.39736728,5.8125 L6.39736728,18.1875 C6.39736728,18.9628601 7.02427208,19.59375 7.79473457,19.59375 L9.40170695,19.59375 C9.78762049,19.59375 10.1003906,19.9085083 10.1003906,20.296875 Z M16.384586,7.921875 C16.384586,7.5335083 16.0718159,7.21875 15.6859023,7.21875 L8.48946083,7.21875 C8.10368374,7.21875 7.79077719,7.5335083 7.79077719,7.921875 C7.79077719,8.3102417 8.10368374,8.625 8.48946083,8.625 L15.6859023,8.625 C16.0718159,8.625 16.384586,8.3102417 16.384586,7.921875 Z M13.5938088,10.734375 C13.5938088,10.3460083 13.2810387,10.03125 12.8951252,10.03125 L8.48946083,10.03125 C8.10368374,10.03125 7.79077719,10.3460083 7.79077719,10.734375 C7.79077719,11.1227417 8.10368374,11.4375 8.48946083,11.4375 L12.8951252,11.4375 C13.2810387,11.4375 13.5938088,11.1227417 13.5938088,10.734375 Z M8.48946083,12.84375 C8.10368374,12.84375 7.79077719,13.1585083 7.79077719,13.546875 C7.79077719,13.9352417 8.10368374,14.25 8.48946083,14.25 L11.3929553,14.25 C11.7788689,14.25 12.091639,13.9352417 12.091639,13.546875 C12.091639,13.1585083 11.7788689,12.84375 11.3929553,12.84375 L8.48946083,12.84375 Z M20.6787612,20.4769135 C20.4099317,20.8093872 20.0132377,21 19.590343,21 L12.7675335,21 C12.342319,21 11.9443968,20.8095245 11.6758403,20.4774628 C11.4056463,20.143341 11.3007073,19.7092438 11.3879063,19.2865448 C11.6136138,18.1923065 12.2114523,17.1966705 13.0711607,16.4829712 C13.3967582,16.2127075 13.7545606,15.9877625 14.133924,15.8119812 C13.7111658,15.3287201 13.4540721,14.6954956 13.4540721,14.0026703 C13.4540721,12.4905396 14.6763591,11.2604828 16.1789383,11.2604828 C17.6815175,11.2604828 18.9038045,12.4905396 18.9038045,14.0026703 C18.9038045,14.6954956 18.6467107,15.3287201 18.2239525,15.8119812 C18.6033159,15.9877625 18.9611184,16.2125702 19.2867159,16.4829712 C20.1292301,17.1823883 20.720109,18.1526184 20.9559148,19.2209015 C20.9613732,19.2394409 20.9660129,19.2581177 20.9699703,19.2772064 C21.0575787,19.7023773 20.9514115,20.1396332 20.6787612,20.4769135 L20.6787612,20.4769135 Z M14.8514394,14.0026703 C14.8514394,14.7393036 15.446958,15.3386078 16.1789383,15.3386078 C16.9109186,15.3386078 17.5064372,14.7393036 17.5064372,14.0026703 C17.5064372,13.266037 16.9109186,12.6667328 16.1789383,12.6667328 C15.446958,12.6667328 14.8514394,13.266037 14.8514394,14.0026703 Z M19.6020787,19.5738373 C19.6019423,19.5734253 19.6018058,19.572876 19.6018058,19.572464 C19.2662466,17.9463501 17.8267127,16.7660065 16.1789383,16.7660065 C14.5311639,16.7660065 13.0914935,17.9463501 12.7560707,19.572464 C12.7529321,19.5882568 12.7637126,19.593338 12.7637126,19.5934754 C12.7639855,19.5934754 12.7652137,19.59375 12.7675335,19.59375 L19.590343,19.59375 C19.5907524,19.593338 19.6001683,19.5861969 19.6020787,19.5738373 L19.6020787,19.5738373 Z" id="Shape" fill="#787EFF" fill-rule="nonzero"></path>
    </g>
</svg>