<?xml version="1.0" encoding="UTF-8"?>
<svg width="24px" height="24px" viewBox="0 0 24 24" version="1.1" xmlns="http://www.w3.org/2000/svg" xmlns:xlink="http://www.w3.org/1999/xlink">
    <!-- Generator: Sketch 64 (93537) - https://sketch.com -->
    <title>ic/info</title>
    <desc>Created with Sketch.</desc>
    <defs>
        <path d="M12.9,15.15 L13.3501733,15.15 C13.8471338,15.15 14.25,15.5494783 14.25,16.05 C14.25,16.5470563 13.850655,16.95 13.3501733,16.95 L10.6498267,16.95 C10.1528662,16.95 9.75,16.5505217 9.75,16.05 C9.75,15.5529437 10.149345,15.15 10.6498267,15.15 L11.1,15.15 L11.1,12.45 L10.6526636,12.45 C10.1541362,12.45 9.75,12.0505217 9.75,11.55 C9.75,11.0529437 10.1489497,10.65 10.6526636,10.65 L11.9973364,10.65 C12.2480904,10.65 12.4727355,10.7505641 12.635535,10.9133462 C12.7993252,11.07554 12.9,11.3001845 12.9,11.55 L12.9,15.15 Z M12,21 C7.02943725,21 3,16.9705627 3,12 C3,7.02943725 7.02943725,3 12,3 C16.9705627,3 21,7.02943725 21,12 C21,16.9705627 16.9705627,21 12,21 Z M12,19.2 C15.9764502,19.2 19.2,15.9764502 19.2,12 C19.2,8.0235498 15.9764502,4.8 12,4.8 C8.0235498,4.8 4.8,8.0235498 4.8,12 C4.8,15.9764502 8.0235498,19.2 12,19.2 Z M12,9.75 C11.2544156,9.75 10.65,9.14558441 10.65,8.4 C10.65,7.65441559 11.2544156,7.05 12,7.05 C12.7455844,7.05 13.35,7.65441559 13.35,8.4 C13.35,9.14558441 12.7455844,9.75 12,9.75 Z" id="path-1"></path>
    </defs>
    <g id="ic/info" stroke="none" stroke-width="1" fill="none" fill-rule="evenodd">
        <mask id="mask-2" fill="white">
            <use xlink:href="#path-1"></use>
        </mask>
        <use id="Shape" fill="#FFFFFF" opacity="0.5" xlink:href="#path-1"></use>
    </g>
</svg>