<?xml version="1.0" encoding="UTF-8"?>
<svg width="24px" height="24px" viewBox="0 0 24 24" version="1.1" xmlns="http://www.w3.org/2000/svg" xmlns:xlink="http://www.w3.org/1999/xlink">
    <!-- Generator: Sketch 63.1 (92452) - https://sketch.com -->
    <title>ic/setting_info</title>
    <desc>Created with Sketch.</desc>
    <g id="ic/setting_info" stroke="none" stroke-width="1" fill="none" fill-rule="evenodd">
        <path d="M16.0699844,3 C17.7036597,3 19.0329379,4.26164246 19.0329379,5.8125 L19.0329379,13.265625 C19.0329379,13.6539917 18.7011971,13.96875 18.2921995,13.96875 C17.8830573,13.96875 17.5514612,13.6539917 17.5514612,13.265625 L17.5514612,5.8125 C17.5514612,5.03713987 16.8868221,4.40625 16.0699844,4.40625 L6.96295346,4.40625 C6.14611578,4.40625 5.48147673,5.03713987 5.48147673,5.8125 L5.48147673,18.1875 C5.48147673,18.9628601 6.14611578,19.59375 6.96295346,19.59375 L11.2221991,19.59375 C11.6313413,19.59375 11.9629374,19.9085083 11.9629374,20.296875 C11.9629374,20.6852417 11.6313413,21 11.2221991,21 L6.96295346,21 C5.32913348,21 4,19.7383575 4,18.1875 L4,5.8125 C4,4.26164246 5.32913348,3 6.96295346,3 L16.0699844,3 Z M19.6569231,14.6140595 C19.895059,14.2984772 20.3577311,14.2256928 20.69034,14.4517364 C21.0230935,14.6777802 21.0996269,15.1169586 20.8614911,15.4326782 L20.8614911,15.4326782 L17.1955595,20.2934418 C17.1876024,20.3040161 17.1792112,20.3144531 17.1706753,20.3244781 C16.8377771,20.7177887 16.3428423,20.9625092 15.8127514,20.9960175 C15.7707956,20.9986267 15.7288397,21 15.6870285,21 C15.2003402,21 14.7273961,20.8217468 14.3729412,20.5016327 L14.3729412,20.5016327 L12.0069188,18.3450165 C11.7117808,18.0761261 11.7022323,17.6310425 11.9856515,17.3508911 C12.2690707,17.0707397 12.7379639,17.0618134 13.0329571,17.3307037 L13.0329571,17.3307037 L15.3966648,19.4851227 C15.5113925,19.5888062 15.6450726,19.5970459 15.7142275,19.5927887 C15.7810675,19.5885315 15.9060671,19.5649109 16.0057485,19.4551849 L16.0057485,19.4551849 Z M12.3333066,12.84375 C12.7424488,12.84375 13.074045,13.1585083 13.074045,13.546875 C13.074045,13.9352417 12.7424488,14.25 12.3333066,14.25 L12.3333066,14.25 L7.69964091,14.25 C7.2904987,14.25 6.95890255,13.9352417 6.95890255,13.546875 C6.95890255,13.1585083 7.2904987,12.84375 7.69964091,12.84375 L7.69964091,12.84375 Z M15.3292461,10.03125 C15.7382436,10.03125 16.0699844,10.3460083 16.0699844,10.734375 C16.0699844,11.1227417 15.7382436,11.4375 15.3292461,11.4375 L15.3292461,11.4375 L7.69964091,11.4375 C7.2904987,11.4375 6.95890255,11.1227417 6.95890255,10.734375 C6.95890255,10.3460083 7.2904987,10.03125 7.69964091,10.03125 L7.69964091,10.03125 Z M15.3292461,7.21875 C15.7382436,7.21875 16.0699844,7.5335083 16.0699844,7.921875 C16.0699844,8.3102417 15.7382436,8.625 15.3292461,8.625 L15.3292461,8.625 L7.69964091,8.625 C7.2904987,8.625 6.95890255,8.3102417 6.95890255,7.921875 C6.95890255,7.5335083 7.2904987,7.21875 7.69964091,7.21875 L7.69964091,7.21875 Z" id="Combined-Shape" fill="#E79A48" fill-rule="nonzero"></path>
    </g>
</svg>